<?xml version="1.0" standalone="no"?>
<!DOCTYPE svg PUBLIC "-//W3C//DTD SVG 20010904//EN"
 "http://www.w3.org/TR/2001/REC-SVG-20010904/DTD/svg10.dtd">
<svg version="1.0" xmlns="http://www.w3.org/2000/svg"
 width="700.000000pt" height="700.000000pt" viewBox="0 0 700.000000 700.000000"
 preserveAspectRatio="xMidYMid meet">
<metadata>
Created by potrace 1.11, written by Peter Selinger 2001-2013
</metadata>
<g transform="translate(0.000000,700.000000) scale(0.100000,-0.100000)"
fill="#000000" stroke="none">
<path d="M3831 6986 c-84 -24 -272 -249 -378 -453 -50 -97 -132 -301 -132
-331 0 -21 -26 -102 -32 -102 -8 0 -196 60 -464 147 -187 62 -236 67 -307 35
-132 -59 -178 -215 -98 -334 25 -37 27 -43 12 -46 -9 -2 -94 -25 -189 -52
-699 -198 -1248 -543 -1640 -1032 -166 -207 -299 -437 -403 -698 -38 -96 -104
-301 -114 -356 -2 -16 -12 -60 -20 -99 -19 -88 -24 -118 -32 -175 -3 -25 -7
-56 -10 -70 -19 -112 -26 -535 -12 -710 34 -405 155 -806 349 -1152 412 -735
1170 -1249 2150 -1457 79 -17 160 -33 179 -35 19 -3 85 -12 145 -20 233 -33
350 -40 650 -41 216 0 399 7 510 19 123 14 162 19 179 22 11 2 54 8 96 14 42
6 85 12 96 15 10 2 62 13 114 24 251 53 525 136 698 212 208 92 290 133 412
204 591 345 992 812 1225 1425 55 143 123 396 140 520 9 64 16 109 21 134 25
132 25 680 0 826 -3 14 -7 45 -10 70 -3 25 -13 80 -21 123 -187 976 -826 1721
-1810 2110 -149 59 -381 133 -506 162 l-77 18 32 51 c27 45 31 60 31 122 0 65
-3 76 -35 123 -53 78 -162 123 -240 100 -14 -4 -138 -44 -276 -88 -138 -45
-256 -81 -262 -81 -20 0 42 147 117 277 22 38 87 124 132 173 55 61 77 94 84
129 40 187 -119 331 -304 277z m-818 -1468 c-34 -45 -252 -348 -267 -372 -40
-63 -29 -192 22 -251 48 -56 140 -97 198 -89 105 15 137 42 269 225 49 68 93
129 97 134 5 6 33 44 63 85 30 41 63 86 73 99 9 13 20 28 24 34 4 6 9 9 11 7
2 -3 84 -114 182 -248 97 -134 187 -253 199 -265 115 -120 322 -76 382 81 21
52 14 146 -12 188 -10 16 -73 103 -139 194 -147 200 -140 190 -118 186 10 -2
43 -7 74 -10 31 -4 65 -8 75 -10 19 -4 121 -19 139 -22 33 -4 109 -21 250 -56
350 -88 655 -217 929 -391 45 -28 83 -54 86 -57 3 -3 21 -17 40 -30 70 -48
177 -140 270 -232 396 -391 609 -865 665 -1482 12 -129 6 -456 -10 -556 -2
-14 -7 -45 -10 -70 -88 -657 -432 -1213 -985 -1591 -306 -210 -680 -365 -1100
-458 -123 -27 -166 -35 -240 -46 -14 -2 -38 -6 -55 -9 -16 -2 -59 -8 -95 -11
-36 -4 -72 -9 -82 -10 -123 -24 -740 -24 -888 -1 -14 2 -52 7 -85 11 -75 8
-123 14 -155 20 -14 3 -43 8 -65 11 -95 14 -270 54 -391 88 -808 228 -1405
710 -1694 1366 -35 80 -106 281 -114 325 -2 11 -9 38 -15 60 -26 99 -51 258
-67 425 -4 45 -4 372 0 425 8 100 18 200 21 206 2 3 7 28 11 55 3 27 8 58 11
69 2 11 6 31 9 45 31 157 99 355 178 520 219 460 617 847 1121 1089 129 62
309 135 385 157 8 2 69 20 135 39 108 33 260 70 325 81 14 2 41 7 60 10 19 4
45 8 57 9 12 2 34 6 50 9 15 3 55 8 88 12 33 3 62 8 64 10 2 2 11 4 19 4 10 0
12 -4 5 -12z"/>
<path d="M5030 4671 c-146 -45 -211 -191 -145 -326 21 -44 43 -65 133 -133
368 -273 555 -632 577 -1102 7 -151 19 -199 61 -248 71 -84 182 -106 282 -56
98 49 132 121 127 275 -3 104 -12 212 -20 259 -3 14 -7 41 -10 60 -47 293
-191 614 -382 850 -124 152 -341 343 -462 405 -38 19 -123 27 -161 16z"/>
</g>
</svg>
