<?xml version="1.0" encoding="iso-8859-1"?>
<!-- Generator: Adobe Illustrator 19.2.1, SVG Export Plug-In . SVG Version: 6.00 Build 0)  -->
<svg version="1.1" xmlns="http://www.w3.org/2000/svg" xmlns:xlink="http://www.w3.org/1999/xlink" x="0px" y="0px"
	 viewBox="0 0 29.869 31.798" style="enable-background:new 0 0 29.869 31.798;" xml:space="preserve">
<g id="Layer_36">
	<g>
		<path style="fill:#E67373;" d="M1.077,21.598c0.678,1.983,1.853,4.428,3.374,6.453c0.763,1.011,1.612,1.919,2.564,2.601
			c0.948,0.678,2.027,1.143,3.201,1.144c0.818,0.002,1.657-0.237,2.435-0.719c0.478-0.296,0.931-0.586,1.33-0.785
			c0.4-0.203,0.734-0.296,0.949-0.293c0.215-0.004,0.549,0.09,0.949,0.293c0.4,0.199,0.852,0.49,1.33,0.785
			c0.779,0.483,1.619,0.723,2.439,0.72c1.176-0.001,2.257-0.467,3.206-1.147c1.427-1.028,2.634-2.558,3.641-4.198
			c1.003-1.641,1.792-3.394,2.298-4.889c0.746-2.21,1.076-4.212,1.076-6.011c0.007-3.823-1.514-6.701-3.497-8.553
			c-1.989-1.855-4.375-2.745-6.327-2.755c-0.388,0-0.762,0.037-1.118,0.117c-1.072,0.243-1.931,0.715-2.617,1.076
			c-0.044,0.024-0.081,0.042-0.124,0.065c0.641-2.024,2.509-3.5,4.745-3.504c0.552,0,1-0.448,1-1c0-0.552-0.448-1-1-1
			c-3.43,0-6.278,2.468-6.878,5.724c-0.182-0.091-0.376-0.197-0.596-0.332c-0.655-0.388-1.45-0.918-2.485-1.209
			c-0.359-0.1-0.736-0.142-1.128-0.142c-1.88,0.014-4.25,0.938-6.265,2.835C1.572,8.771-0.006,11.707,0,15.609
			C0,17.407,0.329,19.403,1.077,21.598z M4.955,8.326c1.636-1.571,3.688-2.299,4.888-2.285c0.245,0,0.448,0.028,0.592,0.069
			c0.662,0.181,1.333,0.577,2.027,0.997C13.153,7.512,14,7.887,15,7.899V7.798h-0.068c0.941,0,1.621-0.341,2.315-0.693
			c0.69-0.368,1.379-0.676,2.12-0.842c0.188-0.043,0.418-0.043,0.678-0.043c1.328-0.01,3.354,0.706,4.958,2.225
			c1.609,1.522,2.86,3.805,2.866,7.101c0,1.554-0.285,3.341-0.971,5.374c-0.603,1.794-1.722,4.119-3.076,5.918
			c-0.675,0.9-1.409,1.669-2.131,2.185c-0.726,0.52-1.413,0.775-2.042,0.774c-0.444-0.002-0.887-0.116-1.39-0.423
			c-0.453-0.278-0.945-0.6-1.485-0.871c-0.54-0.267-1.143-0.5-1.843-0.503c-0.7,0.004-1.303,0.236-1.843,0.504
			c-0.541,0.271-1.033,0.594-1.486,0.872c-0.501,0.306-0.943,0.42-1.386,0.422c-0.628,0.001-1.313-0.253-2.038-0.771
			c-1.085-0.77-2.184-2.112-3.096-3.604c-0.916-1.49-1.657-3.129-2.112-4.468C2.284,18.938,2,17.162,2,15.609
			C2.006,12.247,3.309,9.9,4.955,8.326z"/>
		<path style="fill:#E67373;" d="M19.159,10.72L19.159,10.72c0.454-0.24,0.838-0.327,1.189-0.328c0.26,0,0.507,0.049,0.759,0.146
			c0.59,0.225,1.215,0.758,1.766,1.529c0.59,0.824,0.929,1.851,0.987,3.123c0.024,0.552,0.491,0.979,1.043,0.955
			c0.552-0.024,0.979-0.491,0.955-1.043c-0.068-1.582-0.512-3.022-1.36-4.202c-0.703-0.976-1.573-1.798-2.667-2.227
			c-0.463-0.18-0.964-0.282-1.483-0.282c-0.703-0.001-1.428,0.189-2.127,0.562c-0.488,0.259-0.673,0.865-0.414,1.352
			C18.065,10.794,18.671,10.979,19.159,10.72z"/>
	</g>
</g>
<g id="Layer_1">
</g>
</svg>
