<?xml version="1.0" encoding="iso-8859-1"?>
<!-- Generator: Adobe Illustrator 19.2.1, SVG Export Plug-In . SVG Version: 6.00 Build 0)  -->
<svg version="1.1" xmlns="http://www.w3.org/2000/svg" xmlns:xlink="http://www.w3.org/1999/xlink" x="0px" y="0px"
	 viewBox="0 0 32 32" style="enable-background:new 0 0 32 32;" xml:space="preserve">
<g id="Layer_5">
	<g>
		<path style="fill:#E67373;" d="M10.156,32c2.34,0,4.504-0.787,6.222-2.104c1.347-1.035,2.75-1.87,4.244-2.149
			C27.156,26.511,31.998,20.769,32,14c0-0.867-0.08-1.749-0.245-2.639C30.737,5.915,26.462,1.513,21.05,0.33
			C20.023,0.107,19.002,0,18,0C11.62,0.002,6.078,4.329,4.477,10.398c-0.539,2.057-1.196,4.011-2.384,5.53
			C0.783,17.608-0.001,19.719,0,22C0.004,27.531,4.566,32,10.156,32z M3.671,17.156c1.471-1.894,2.177-4.123,2.74-6.249
			C7.775,5.72,12.537,1.997,18,2c0.859,0,1.737,0.092,2.625,0.285c4.607,0.996,8.309,4.807,9.164,9.442
			C29.931,12.496,30,13.256,30,14c0.002,5.797-4.159,10.727-9.749,11.781c-1.976,0.376-3.634,1.414-5.09,2.527
			C13.778,29.368,12.046,30,10.156,30c-2.255,0-4.292-0.9-5.77-2.352C2.908,26.194,2.001,24.202,2,22
			C2.001,20.179,2.621,18.506,3.671,17.156z"/>
		<path style="fill:#E67373;" d="M17,20c3.863-0.002,6.998-3.137,7-7c-0.002-3.863-3.137-6.998-7-7c-3.863,0.002-6.998,3.137-7,7
			C10.002,16.863,13.137,19.998,17,20z M17,8c2.754,0.005,4.995,2.245,5,5c-0.005,2.754-2.246,4.995-5,5
			c-2.755-0.005-4.995-2.246-5-5C12.005,10.245,14.245,8.005,17,8z"/>
		<path style="fill:#E67373;" d="M17,11c1.1,0.002,1.998,0.9,2,2c0,0.552,0.448,1,1,1c0.552,0,1-0.448,1-1h0
			c-0.002-2.208-1.792-3.998-4-4c-0.552,0-1,0.448-1,1C16,10.552,16.448,11,17,11z"/>
	</g>
</g>
<g id="Layer_1">
</g>
</svg>
