<?xml version="1.0" encoding="iso-8859-1"?>
<!-- Generator: Adobe Illustrator 19.2.1, SVG Export Plug-In . SVG Version: 6.00 Build 0)  -->
<svg version="1.1" xmlns="http://www.w3.org/2000/svg" xmlns:xlink="http://www.w3.org/1999/xlink" x="0px" y="0px"
	 viewBox="0 0 28 31.984" style="enable-background:new 0 0 28 31.984;" xml:space="preserve">
<g id="Layer_50">
	<g>
		<path style="fill:#E67373;" d="M15,26.016c0.552,0,1-0.448,1-1v-10c0-0.552-0.448-1-1-1s-1,0.448-1,1v10
			C14,25.568,14.448,26.016,15,26.016z"/>
		<path style="fill:#E67373;" d="M25,9.984h-3V9.016c0-2.759-2.24-4.998-5-5c-0.377,0-0.738,0.055-1.088,0.136
			C15.5,1.806,13.464,0.018,11,0.016c-2.464,0.002-4.5,1.79-4.912,4.136C5.738,4.071,5.377,4.016,5,4.016c-2.76,0.002-5,2.241-5,5
			v18c0,2.762,2.238,4.968,5,4.968h12c2.762,0,5-2.207,5-4.968v-1.032h3c1.657,0,3-1.311,3-2.968v-10
			C28,11.358,26.657,9.984,25,9.984z M5,6c0.558,0,1.075,0.17,1.541,0.452C6.874,6.653,7.29,6.649,7.614,6.433
			C7.937,6.218,8.106,5.84,8.049,5.455C8.018,5.255,7.999,5.114,8,5.015c0.003-1.651,1.348-2.997,3-3c1.652,0.003,2.997,1.349,3,3
			c0.001,0.099-0.018,0.241-0.049,0.441c-0.057,0.385,0.111,0.765,0.435,0.98c0.324,0.215,0.74,0.224,1.072,0.023
			C15.925,6.178,16.442,6,17,6c1.299,0.002,2.398,0.984,2.814,1.984c-2.28,0-7.033,0-10.087,0c-0.255,0-0.498,0-0.727,0
			c-0.132,0-0.263,0.043-0.384,0.093C8.373,8.179,8.179,8.381,8.078,8.624C8.027,8.745,8,8.884,8,9.016v4c0,0.552-0.448,0.999-1,1
			c-0.552-0.001-1-0.448-1-1v-4c0-0.132-0.027-0.263-0.078-0.384C5.875,8.517,5.804,8.415,5.719,8.327
			C5.714,8.322,5.712,8.314,5.707,8.309C5.701,8.303,5.693,8.301,5.686,8.295c-0.088-0.084-0.188-0.17-0.302-0.217
			C5.263,8.027,5.132,7.984,5,7.984c-0.23,0-0.442,0-0.64,0c-1.169,0-1.79,0-2.174,0C2.602,6.984,3.701,6.002,5,6z M20,11.016v14v2
			c0,1.656-1.344,2.968-3,2.968H5c-1.656,0-3-1.312-3-2.968V9.984h2v3.032c0,1.305,1,2.403,2,2.816v9.184c0,0.552,0.448,1,1,1
			s1-0.448,1-1v-9.184c1-0.413,2-1.511,2-2.816V9.984c1,0,2.679,0,4.135,0c2.295,0,3.865,0,5.865,0V11.016z M26,23.016
			c0,0.552-0.448,0.968-1,0.968h-3v-12h3c0.552,0,1,0.48,1,1.032V23.016z"/>
	</g>
</g>
<g id="Layer_1">
</g>
</svg>
