<?xml version="1.0" encoding="iso-8859-1"?>
<!-- Generator: Adobe Illustrator 19.2.1, SVG Export Plug-In . SVG Version: 6.00 Build 0)  -->
<svg version="1.1" xmlns="http://www.w3.org/2000/svg" xmlns:xlink="http://www.w3.org/1999/xlink" x="0px" y="0px"
	 viewBox="0 0 32 32" style="enable-background:new 0 0 32 32;" xml:space="preserve">
<g id="Layer_6">
	<g>
		<path style="fill:#E67373;" d="M10.156,32c2.34,0,4.504-0.787,6.222-2.104c1.347-1.035,2.75-1.87,4.244-2.149
			C27.156,26.511,31.998,20.769,32,14c0-0.867-0.08-1.749-0.245-2.639C30.737,5.915,26.462,1.513,21.05,0.33
			C20.023,0.107,19.002,0,18,0C11.62,0.002,6.078,4.329,4.477,10.398c-0.539,2.057-1.196,4.011-2.384,5.53
			C0.783,17.608-0.001,19.719,0,22C0.004,27.531,4.566,32,10.156,32z M3.671,17.156c1.471-1.894,2.177-4.123,2.74-6.249
			C7.775,5.72,12.537,1.997,18,2c0.859,0,1.737,0.092,2.625,0.285c4.607,0.996,8.309,4.807,9.164,9.442
			C29.932,12.496,30,13.256,30,14c0.002,5.797-4.159,10.727-9.749,11.781c-1.976,0.376-3.634,1.414-5.09,2.527
			C13.778,29.368,12.046,30,10.156,30c-2.255,0-4.292-0.9-5.77-2.352C2.908,26.194,2.001,24.202,2,22
			C2.001,20.179,2.621,18.506,3.671,17.156z"/>
		<path style="fill:#E67373;" d="M10.156,28c1.378,0.001,2.702-0.444,3.787-1.279c1.361-1.047,3.425-2.435,5.937-2.905
			c4.783-0.907,8.113-5.129,8.113-9.864c0-0.614-0.056-1.236-0.172-1.859c-0.728-3.878-3.766-7.008-7.621-7.853
			C19.472,4.08,18.732,4,18,4c-4.533,0-8.502,3.046-9.655,7.417c-0.636,2.416-1.445,4.849-3.096,6.967
			C4.436,19.424,3.998,20.69,4,22C4.006,25.335,6.783,27.994,10.156,28z M6.827,19.614c1.916-2.462,2.794-5.197,3.453-7.687
			C11.197,8.44,14.372,5.903,18,5.903C18.586,5.903,19.184,6,19.774,6h0.002c3.049,1,5.516,3.296,6.08,6.361
			c0.093,0.502,0.138,1.05,0.138,1.542c0,3.796-2.679,7.209-6.484,7.923c-3.011,0.571-5.328,2.183-6.783,3.296
			c-0.743,0.568-1.618,0.87-2.57,0.872c-1.156,0-2.195-0.452-2.948-1.181C6.456,24.081,6.001,23.094,6,21.998
			C6.002,21.127,6.28,20.318,6.827,19.614z"/>
		<polygon style="fill:#E67373;" points="20.201,4.24 20.201,4.24 20.202,4.24 		"/>
		<path style="fill:#E67373;" d="M18,16c2.208-0.002,3.998-1.792,4-4c-0.002-2.208-1.792-3.998-4-4c-2.208,0.002-3.998,1.792-4,4
			C14.002,14.208,15.792,15.998,18,16z M18,10c1.1,0.002,1.998,0.9,2,2c-0.002,1.1-0.9,1.998-2,2c-1.1-0.002-1.998-0.9-2-2
			C16.002,10.9,16.9,10.002,18,10z"/>
	</g>
</g>
<g id="Layer_1">
</g>
</svg>
