<?xml version="1.0" encoding="iso-8859-1"?>
<!-- Generator: Adobe Illustrator 19.2.1, SVG Export Plug-In . SVG Version: 6.00 Build 0)  -->
<svg version="1.1" xmlns="http://www.w3.org/2000/svg" xmlns:xlink="http://www.w3.org/1999/xlink" x="0px" y="0px"
	 viewBox="0 0 32 32" style="enable-background:new 0 0 32 32;" xml:space="preserve">
<g id="Layer_18">
	<g>
		<path style="fill:#E67373;" d="M24.626,1.26C22.117,0.462,19.151,0.001,16,0C11.798,0.003,7.928,0.817,5.025,2.169
			c-1.452,0.679-2.668,1.492-3.56,2.456C0.576,5.582-0.001,6.738,0,8c-0.001,1.194,0.519,2.294,1.324,3.21
			C2.017,12,3,12.683,4,13.286V29c0,1.657,1.343,3,3,3h18c1.657,0,3-1.343,3-3V13.286c1-0.604,1.983-1.286,2.676-2.076
			C31.481,10.294,32.001,9.194,32,8c0.001-1.262-0.576-2.418-1.464-3.375C29.195,3.182,27.135,2.063,24.626,1.26z M29.17,9.894
			c-0.576,0.662-1.476,1.328-2.625,1.916C26.209,11.981,26,12.323,26,12.7V29c0,0.543-0.457,0.999-1,1H7c-0.543-0.001-1-0.457-1-1
			V12.7c0-0.377-0.209-0.719-0.544-0.89c-1.149-0.587-2.049-1.253-2.625-1.916C2.251,9.226,2.001,8.606,2,8
			c0.001-0.638,0.281-1.307,0.934-2.019c0.97-1.061,2.758-2.093,5.046-2.816C10.267,2.438,13.046,1.999,16,2
			c3.938-0.003,7.568,0.783,10.13,1.981c1.281,0.596,2.289,1.296,2.937,2C29.719,6.693,29.999,7.362,30,8
			C29.999,8.606,29.749,9.226,29.17,9.894z"/>
		<path style="fill:#E67373;" d="M20.293,6.293l-10,10c-0.391,0.391-0.391,1.024,0,1.414c0.391,0.391,1.024,0.391,1.414,0l10-10
			c0.391-0.391,0.391-1.024,0-1.414C21.317,5.902,20.683,5.902,20.293,6.293z"/>
		<path style="fill:#E67373;" d="M20.293,14.293l-10,10c-0.391,0.391-0.391,1.024,0,1.414c0.391,0.391,1.024,0.391,1.414,0l10-10
			c0.391-0.391,0.391-1.024,0-1.414C21.317,13.902,20.683,13.902,20.293,14.293z"/>
	</g>
</g>
<g id="Layer_1">
</g>
</svg>
