<?xml version="1.0" encoding="iso-8859-1"?>
<!-- Generator: Adobe Illustrator 19.2.1, SVG Export Plug-In . SVG Version: 6.00 Build 0)  -->
<svg version="1.1" xmlns="http://www.w3.org/2000/svg" xmlns:xlink="http://www.w3.org/1999/xlink" x="0px" y="0px"
	 viewBox="0 0 32 31.984" style="enable-background:new 0 0 32 31.984;" xml:space="preserve">
<g id="Layer_54">
	<path style="fill:#E67373;" d="M24,6.016c-0.084,0-0.171,0.006-0.257,0.008C22.835,2.472,19.603,0.017,16,0.016
		C12.378,0.02,9.174,2.5,8.262,6.013C8.158,6.008,8.053,5.999,7.949,5.999C3.794,6.005,0.014,9.425,0,14.016
		c0.003,3.899,2.804,7.137,6.493,7.84C6.648,21.949,6.818,22.016,7,22.016c1.643,0.003,3,1.357,3,3v4c0,1.657,1.343,2.968,3,2.968h6
		c1.657,0,3-1.312,3-2.968v-4c0-1.643,1.357-2.997,3-3c0.172,0,0.334-0.06,0.483-0.144c3.706-0.698,6.515-3.949,6.517-7.856
		C31.998,9.602,28.414,6.018,24,6.016z M20,25.016v4c0,0.543-0.457,0.968-1,0.968h-6c-0.543,0-1-0.425-1-0.968v-4
		c0-1.335-0.535-2.541-1.39-3.438c0.283-0.098,0.56-0.212,0.827-0.342c2.11-1.016,3.69-2.948,4.29-5.238
		c0.075,0.005,0.15-0.013,0.226-0.013h0.094c0.076,0,0.152,0.019,0.228,0.013c0.6,2.29,2.18,4.206,4.29,5.221
		c0.267,0.13,0.543,0.252,0.827,0.35C20.535,22.466,20,23.681,20,25.016z M28.24,18.272c-0.906,0.905-2.094,1.712-3.42,1.712
		c-0.002,0-0.003,0-0.005,0c-0.088,0-0.188,0.011-0.287,0.021c-0.174,0.015-0.35,0.019-0.528,0.019
		c-0.909,0.001-1.805-0.212-2.561-0.582l-0.006-0.005c-1.539-0.74-2.705-2.109-3.184-3.755c1.263-0.374,2.444-1.035,3.409-2.03
		c0.384-0.397,0.374-1.03-0.022-1.414c-0.397-0.384-1.03-0.374-1.414,0.022v0c-1.014,1.047-2.395,1.602-3.904,1.746
		c-0.104,0.005-0.208,0.01-0.317,0.01c-0.11,0-0.214-0.006-0.319-0.01c-1.506-0.144-2.888-0.697-3.903-1.746
		c-0.384-0.397-1.017-0.407-1.414-0.022c-0.397,0.384-0.407,1.017-0.023,1.414c0.966,0.997,2.148,1.656,3.409,2.029
		c-0.479,1.646-1.645,3.014-3.184,3.753l-0.006,0.003C9.805,19.808,8.909,20.017,8,20.016c-0.301,0-0.582-0.019-0.816-0.063
		l-0.044-0.007c-2.89-0.409-5.144-2.917-5.141-5.93c0.001-1.723,0.712-3.214,1.82-4.296c1.108-1.08,2.606-1.722,4.13-1.721
		c0.312,0,0.625,0.027,0.937,0.081c0.267,0.047,0.546-0.018,0.765-0.178c0.219-0.16,0.365-0.408,0.4-0.676
		c0.386-2.989,3.011-5.214,5.949-5.21c2.926-0.002,5.561,2.184,5.948,5.209c0.035,0.272,0.178,0.514,0.4,0.677
		c0.221,0.163,0.495,0.226,0.766,0.179C23.372,8.035,23.677,8.016,24,8.016c1.656,0,3.15,0.671,4.24,1.76
		c1.088,1.09,1.759,2.592,1.76,4.248C30,15.68,29.329,17.182,28.24,18.272z"/>
</g>
<g id="Layer_1">
</g>
</svg>
