<?xml version="1.0" encoding="iso-8859-1"?>
<!-- Generator: Adobe Illustrator 19.2.1, SVG Export Plug-In . SVG Version: 6.00 Build 0)  -->
<svg version="1.1" xmlns="http://www.w3.org/2000/svg" xmlns:xlink="http://www.w3.org/1999/xlink" x="0px" y="0px"
	 viewBox="0 0 32 30" style="enable-background:new 0 0 32 30;" xml:space="preserve">
<g id="Layer_4">
	<path style="fill:#E67373;" d="M5,30h22c2.762-0.001,4.999-2.238,5-5c0-0.772-0.3-1.469-0.779-2C31.7,22.469,32,21.772,32,21
		c0-0.772-0.3-1.469-0.779-2C31.7,18.469,32,17.772,32,17c0-0.631-0.197-1.215-0.529-1.697c0.298-0.341,0.489-0.782,0.495-1.285
		l-0.005-0.133c-0.284-4.158-2.187-7.667-5.067-10.092C24.015,1.363,20.176,0,16,0C11.824,0,7.985,1.363,5.106,3.793
		c-2.88,2.425-4.783,5.934-5.067,10.09l-0.005,0.134c0.007,0.503,0.197,0.944,0.495,1.285C0.197,15.785,0,16.369,0,17
		c0,0.772,0.3,1.469,0.779,2C0.3,19.531,0,20.228,0,21c0,0.772,0.3,1.469,0.779,2C0.3,23.531,0,24.228,0,25
		C0.001,27.762,2.238,29.999,5,30z M6.396,5.321C8.884,3.221,12.257,2,16,2c3.743,0,7.116,1.221,9.604,3.321
		c2.481,2.1,4.097,5.058,4.359,8.674L29.954,14H29H3H2.046l-0.009-0.005C2.298,10.379,3.915,7.421,6.396,5.321z M3,16h26
		c0.552,0.001,0.999,0.448,1,1c-0.001,0.552-0.448,0.999-1,1H3c-0.552-0.001-0.999-0.448-1-1C2.001,16.448,2.448,16.001,3,16z
		 M30,21c-0.001,0.552-0.448,0.999-1,1h-1.586l-2-2H29C29.552,20.001,29.999,20.448,30,21z M24.586,22h-3.172l-2-2h3.172L24.586,22z
		 M18.586,22h-3.172l-2-2h3.172L18.586,22z M12.586,22H9.414l-2-2h3.172L12.586,22z M3,20h1.586l2,2H3c-0.552-0.001-0.999-0.448-1-1
		C2.001,20.448,2.448,20.001,3,20z M3,24h26c0.552,0.001,0.999,0.448,1,1c-0.003,1.656-1.344,2.997-3,3H5
		c-1.657-0.003-2.997-1.344-3-3C2.001,24.448,2.448,24.001,3,24z"/>
</g>
<g id="Layer_1">
</g>
</svg>
