<?xml version="1.0" encoding="iso-8859-1"?>
<!-- Generator: Adobe Illustrator 19.2.1, SVG Export Plug-In . SVG Version: 6.00 Build 0)  -->
<svg version="1.1" xmlns="http://www.w3.org/2000/svg" xmlns:xlink="http://www.w3.org/1999/xlink" x="0px" y="0px"
	 viewBox="0 0 32 32" style="enable-background:new 0 0 32 32;" xml:space="preserve">
<g id="Layer_14">
	<g>
		<path style="fill:#E67373;" d="M32,17c0-1.657-1.343-2.999-3-3h-9v-1c0-1.657-1.343-2.999-3-3h-2c-1.657,0.001-3,1.343-3,3v1H3
			c-1.657,0.001-3,1.343-3,3v12c0,1.657,1.343,3,3,3h26c1.657,0,3-1.343,3-3v-2l0,0l0,0V17z M14,13c0-0.552,0.448-1,1-1h2
			c0.552,0,1,0.448,1,1v1h-4V13z M30,29c0,0.552-0.448,0.999-1,1H3c-0.552-0.001-1-0.448-1-1v-1h28V29z M30,26H2v-2.556
			C2,23.788,3.268,23.999,4,24c1.202-0.001,2.267-0.542,3-1.382c0.733,0.839,1.798,1.381,3,1.382c1.202-0.001,2.267-0.542,3-1.382
			c0.733,0.839,1.798,1.381,3,1.382c1.202-0.001,2.267-0.542,3-1.382c0.733,0.839,1.798,1.381,3,1.382
			c1.202-0.001,2.267-0.542,3-1.382c0.733,0.839,1.798,1.381,3,1.382c0.732-0.001,1-0.212,2-0.556V26z M30,20c0,1.1-0.9,1.998-2,2
			c-1.1-0.002-1.998-0.9-2-2c0-0.552-0.448-1-1-1c-0.552,0-1,0.448-1,1c-0.002,1.1-0.9,1.998-2,2c-1.1-0.002-1.998-0.9-2-2
			c0-0.552-0.448-1-1-1c-0.552,0-1,0.448-1,1c-0.002,1.1-0.9,1.998-2,2c-1.1-0.002-1.998-0.9-2-2c0-0.552-0.448-1-1-1
			c-0.552,0-1,0.448-1,1c-0.002,1.1-0.9,1.998-2,2c-1.1-0.002-1.998-0.9-2-2c0-0.552-0.448-1-1-1c-0.552,0-1,0.448-1,1
			c-0.002,1.1-0.9,1.998-2,2c-1.1-0.002-2-0.9-2-2v-3c0-0.552,0.448-1,1-1h10h6h10c0.552,0,1,0.448,1,1V20z"/>
		<path style="fill:#E67373;" d="M16,0c-0.286,0-0.554,0.12-0.745,0.332c-0.014,0.016-0.781,0.871-1.567,1.964
			c-0.393,0.548-0.792,1.153-1.108,1.767C12.269,4.683,12.012,5.289,12,6c0.002,2.208,1.791,3.998,4,4c2.208-0.002,3.998-1.792,4-4
			c-0.012-0.711-0.269-1.317-0.58-1.937c-0.945-1.819-2.652-3.696-2.676-3.731C16.554,0.12,16.286,0,16,0z M17.729,5.154
			C17.925,5.552,18.008,5.9,18,6c-0.002,1.1-0.9,1.998-2,2c-1.1-0.002-1.998-0.9-2-2c-0.012-0.116,0.106-0.549,0.358-1.022
			c0.369-0.72,0.975-1.571,1.481-2.217c0.057-0.073,0.107-0.134,0.162-0.202c0.294,0.368,0.634,0.814,0.952,1.283
			C17.257,4.288,17.538,4.752,17.729,5.154z"/>
	</g>
</g>
<g id="Layer_1">
</g>
</svg>
