<?xml version="1.0" encoding="iso-8859-1"?>
<!-- Generator: Adobe Illustrator 19.2.1, SVG Export Plug-In . SVG Version: 6.00 Build 0)  -->
<svg version="1.1" xmlns="http://www.w3.org/2000/svg" xmlns:xlink="http://www.w3.org/1999/xlink" x="0px" y="0px"
	 viewBox="0 0 32.527 32.527" style="enable-background:new 0 0 32.527 32.527;" xml:space="preserve">
<g id="Layer_56">
	<g id="_x33_2x32">
		<path style="fill:#E67373;" d="M32.234,6.778l-6.485-6.485c-0.268-0.269-0.668-0.362-1.028-0.24
			c-0.359,0.121-0.62,0.439-0.671,0.815l-0.732,5.48l-0.691-0.691c-0.974-0.974-2.259-1.466-3.536-1.464
			c-1.276-0.001-2.562,0.49-3.536,1.464l-9.899,9.899c-0.975,0.974-1.466,2.259-1.464,3.535c0,0.043,0.011,0.086,0.012,0.129
			c-0.001,0.015-0.009,0.028-0.009,0.043c0,0.042,0.019,0.079,0.024,0.12c0.068,1.178,0.537,2.345,1.437,3.244l0.691,0.691
			l-5.48,0.732c-0.376,0.05-0.693,0.311-0.815,0.671c-0.122,0.359-0.028,0.759,0.24,1.028l6.485,6.485
			c0.268,0.268,0.668,0.362,1.028,0.24c0.36-0.122,0.62-0.439,0.671-0.815l0.732-5.48l0.691,0.691
			c0.973,0.974,2.259,1.466,3.535,1.464c1.276,0.001,2.562-0.49,3.536-1.464l6.899-6.899l0,0l3-3
			c0.974-0.974,1.465-2.259,1.464-3.536c0-0.043-0.011-0.085-0.012-0.128c0.001-0.015,0.009-0.028,0.009-0.043
			c0-0.043-0.019-0.079-0.024-0.121c-0.068-1.178-0.537-2.344-1.437-3.243l-0.691-0.691l5.48-0.732
			c0.376-0.05,0.693-0.311,0.815-0.671C32.596,7.446,32.502,7.047,32.234,6.778z M16.97,6.703c0.588-0.588,1.35-0.693,2.121-0.694
			c0.771,0.001,1.533,0.383,2.121,0.971l4.243,3.92c0.282,0.282,0.491,0.628,0.637,0.628H11.778L16.97,6.703z M6.762,29.389
			l-3.624-3.625l4.183-0.559L6.762,29.389z M15.556,25.087c-0.588,0.588-1.35,1.062-2.121,1.063
			c-0.771-0.001-1.533-0.199-2.121-0.787l-4.243-4.565c-0.282-0.282-0.491-1.272-0.637-1.272h14.314L15.556,25.087z M26.204,13.527
			c-0.135,0-0.375,0.919-0.748,1.293l-2.707,2.707H6.323c0.135,0,0.375-0.551,0.748-0.924l-0.707-0.523l0.707,0.431l2.707-2.983
			H26.204z M25.206,7.321l0.559-4.183l3.624,3.625L25.206,7.321z"/>
	</g>
</g>
<g id="Layer_1">
</g>
</svg>
