<?xml version="1.0" encoding="iso-8859-1"?>
<!-- Generator: Adobe Illustrator 19.2.1, SVG Export Plug-In . SVG Version: 6.00 Build 0)  -->
<svg version="1.1" xmlns="http://www.w3.org/2000/svg" xmlns:xlink="http://www.w3.org/1999/xlink" x="0px" y="0px"
	 viewBox="0 0 32.016 32.016" style="enable-background:new 0 0 32.016 32.016;" xml:space="preserve">
<g id="Layer_39">
	<path style="fill:#E67373;" d="M2.997,32.016c0.371,0,0.752-0.072,1.121-0.222l0-0.001c3.074-1.249,7.509-3.863,11.684-6.633
		c4.175-2.777,8.027-5.665,9.921-7.553c1.559-1.558,2.341-3.605,2.34-5.649c0.001-1.363-0.355-2.942-1.049-3.942h4.002
		c0.552,0,1-0.448,1-1c0-0.552-0.448-1-1-1H27.43l3.243-3.251c0.391-0.391,0.391-1.028,0-1.418c-0.39-0.39-1.032-0.392-1.422-0.002
		L26,4.586V1c0-0.552-0.448-1-1-1c-0.552,0-1,0.448-1,1v4.002c-1-0.694-2.578-1.05-3.942-1.049c-2.045-0.001-4.095,0.781-5.653,2.34
		c-1.888,1.894-4.774,5.746-7.551,9.921c-2.77,4.175-5.384,8.611-6.633,11.686C0.071,28.268-0.001,28.651,0,29.022
		C0.016,30.673,1.346,32,2.997,32.016z M2.075,28.651c1.136-2.814,3.721-7.232,6.446-11.33c0.371-0.559,0.744-1.11,1.118-1.655
		l2.648,2.648c0.391,0.39,1.024,0.39,1.414,0c0.391-0.391,0.391-1.024,0-1.414l-2.897-2.897c1.957-2.746,3.807-5.088,5.018-6.295
		c1.171-1.17,2.702-1.753,4.243-1.754c1.541,0.001,3.072,0.583,4.243,1.754v0l0,0c1.17,1.171,1.753,2.702,1.754,4.242
		c-0.001,1.541-0.583,3.072-1.754,4.243l-3.536-3.535c-0.39-0.391-1.024-0.391-1.414,0c-0.39,0.391-0.39,1.024,0,1.414l3.463,3.463
		c-1.979,1.669-4.971,3.866-8.127,5.96c-1.151,0.765-2.324,1.515-3.483,2.229L9.46,23.97c-0.391-0.39-1.024-0.39-1.414,0
		c-0.391,0.391-0.391,1.024,0,1.414l1.402,1.402c-2.312,1.362-4.464,2.501-6.081,3.154l-0.373,0.076
		c-0.253,0.001-0.503-0.109-0.694-0.299c-0.19-0.191-0.3-0.441-0.299-0.694L2.075,28.651z"/>
</g>
<g id="Layer_1">
</g>
</svg>
