<?xml version="1.0" encoding="iso-8859-1"?>
<!-- Generator: Adobe Illustrator 19.2.1, SVG Export Plug-In . SVG Version: 6.00 Build 0)  -->
<svg version="1.1" xmlns="http://www.w3.org/2000/svg" xmlns:xlink="http://www.w3.org/1999/xlink" x="0px" y="0px"
	 viewBox="0 0 32 31.758" style="enable-background:new 0 0 32 31.758;" xml:space="preserve">
<g id="Layer_30">
	<g>
		<path style="fill:#E67373;" d="M19.332,0.346c-0.329-0.07-0.66-0.104-0.988-0.104c-1.302,0.001-2.55,0.529-3.48,1.449
			c-3.143,3.11-10.553,10.559-13.417,13.44c-0.402,0.404-0.71,0.877-0.949,1.381c-0.027,0.047-0.056,0.09-0.075,0.141
			C0.151,17.279,0,17.955,0,18.649V27c0,2.757,2.243,4.758,5,4.758h2.18h5.64H27c2.757,0,5-2.001,5-4.758V16
			C32,8.318,26.559,1.882,19.332,0.346z M8,29.758c0.001-1,0.891-1.999,2-2c1.109,0.001,1.999,1,2,2H8z M30,27
			c0,1.643-1.357,2.758-3,2.758H14c-0.004-2-1.789-3.996-4-4c-2.211,0.004-3.996,2-4,4H5c-1.643,0-3-1.114-3-2.758v-8.351
			c0-0.222,0.029-0.892,0.076-0.892H8V19c0,1.657,1.343,2.999,3,3c1.657-0.001,3-1.343,3-3v-1.242h16V27z M30,15.758H13
			c-0.263,0-0.521,0.228-0.707,0.414C12.107,16.358,12,16.737,12,17v2c0,0.552-0.448,0.999-1,1c-0.552-0.001-1-0.448-1-1v-2
			c0-0.263-0.107-0.642-0.293-0.828C9.521,15.985,9.263,15.758,9,15.758H3.404c3.162-3,9.916-9.846,12.867-12.766
			c0.565-0.559,1.318-0.811,2.073-0.81c0.191,0,0.382-0.071,0.572-0.031C25.23,3.491,30.003,9.758,30,15.758L30,15.758z"/>
		<path style="fill:#E67373;" d="M22,28c2.208-0.002,3.998-1.792,4-4c-0.002-2.208-1.792-3.998-4-4c-2.209,0.002-3.998,1.792-4,4
			C18.002,26.208,19.791,27.998,22,28z M22,22c1.1,0.002,1.998,0.9,2,2c-0.002,1.1-0.9,1.998-2,2c-1.1-0.002-1.998-0.9-2-2
			C20.002,22.9,20.9,22.002,22,22z"/>
	</g>
</g>
<g id="Layer_1">
</g>
</svg>
