<?xml version="1.0" encoding="iso-8859-1"?>
<!-- Generator: Adobe Illustrator 19.2.1, SVG Export Plug-In . SVG Version: 6.00 Build 0)  -->
<svg version="1.1" xmlns="http://www.w3.org/2000/svg" xmlns:xlink="http://www.w3.org/1999/xlink" x="0px" y="0px"
	 viewBox="0 0 26 32" style="enable-background:new 0 0 26 32;" xml:space="preserve">
<g id="Layer_16">
	<path style="fill:#E67373;" d="M23,0H3C1.343,0.001,0,1.343,0,3v14V17v12c0,1.657,1.343,3,3,3h20c1.657,0,3-1.343,3-3V17l0,0l0,0V9
		l0,0l0,0V3C26,1.343,24.657,0.001,23,0z M10,2h6v6h-6V2z M10,10h6v6h-6V10z M14.586,18l-4.879,4.879
		C9.509,23.076,9.259,23.17,9,23.171c-0.259-0.001-0.509-0.096-0.707-0.293L3.414,18H14.586z M2,3c0-0.552,0.448-1,1-1h5v6H2V3z
		 M2,10h6v6H2V10z M24,29c0,0.552-0.448,0.999-1,1H3c-0.552-0.001-1-0.448-1-1v-9.586l4.879,4.879
		c0.583,0.584,1.357,0.88,2.121,0.879c0.764,0.001,1.538-0.295,2.121-0.878L17.414,18H24V29z M24,16h-6v-6h6V16z M24,8h-6V2h5
		c0.552,0,1,0.448,1,1V8z"/>
</g>
<g id="Layer_1">
</g>
</svg>
