<?xml version="1.0" encoding="iso-8859-1"?>
<!-- Generator: Adobe Illustrator 19.2.1, SVG Export Plug-In . SVG Version: 6.00 Build 0)  -->
<svg version="1.1" xmlns="http://www.w3.org/2000/svg" xmlns:xlink="http://www.w3.org/1999/xlink" x="0px" y="0px"
	 viewBox="0 0 32 30.007" style="enable-background:new 0 0 32 30.007;" xml:space="preserve">
<g id="Layer_42">
	<path style="fill:#E67373;" d="M31,2.007h-4c-0.263,0-0.521,0.107-0.707,0.293l-3.707,3.707H12c-0.001-3-2.687-5.999-6-6
		c-3.313,0.001-5.999,2.687-6,6c0.002,2.181,1.167,4.09,2.91,5.138C2.33,12.662,2,14.302,2,16.008c0.003,7.715,6.285,13.997,14,14
		c7.715-0.003,13.997-6.285,14-14c0.001-3.77-1.511-7.18-3.918-9.692c-0.177-0.185-0.423-0.287-0.677-0.299l2.009-2.009H31
		c0.552,0,1-0.448,1-1C32,2.455,31.552,2.007,31,2.007z M2,6.008c0.004-2.207,1.793-3.996,4-4c2.207,0.004,3.996,2,4,4H6.64
		c-0.271,0-0.533,0.112-0.72,0.307C5.066,7.202,4.333,8.208,3.743,9.301C2.697,8.582,1.998,7.378,2,6.008z M28,16.008
		c0,3.305-1.346,6.3-3.522,8.478C22.3,26.662,19.305,28.007,16,28.008c-3.305,0-6.3-1.346-8.478-3.522
		C5.346,22.308,4,19.313,4,16.008c0-1.753,0.387-3.428,1.085-4.915l0.01-0.021c0.496-1.124,1.18-2.064,1.995-3.064h3.81h9.112
		c0.876,2,1.347,4.491,1.457,6.757c0.027,0.552,0.497,0.977,1.048,0.949c0.552-0.027,0.977-0.497,0.949-1.048
		c-0.11-2.179-0.5-4.658-1.286-6.658H23H23h1.907C26.817,10.007,28,12.925,28,16.008z"/>
</g>
<g id="Layer_1">
</g>
</svg>
