<?xml version="1.0" encoding="iso-8859-1"?>
<!-- Generator: Adobe Illustrator 19.2.1, SVG Export Plug-In . SVG Version: 6.00 Build 0)  -->
<svg version="1.1" xmlns="http://www.w3.org/2000/svg" xmlns:xlink="http://www.w3.org/1999/xlink" x="0px" y="0px"
	 viewBox="0 0 32 32" style="enable-background:new 0 0 32 32;" xml:space="preserve">
<g id="Layer_3">
	<g>
		<path style="fill:#E67373;" d="M31.715,13.04c-0.081-0.43-0.43-0.756-0.864-0.808c-0.435-0.052-0.85,0.183-1.03,0.582
			c-0.317,0.7-1.013,1.187-1.82,1.186c-0.895,0.002-1.651-0.602-1.903-1.431c-0.152-0.506-0.672-0.806-1.186-0.686
			C24.596,11.957,24.297,12,24,12c-2.203-0.004-3.996-1.797-4-4c0-0.297,0.043-0.596,0.117-0.911
			c0.121-0.514-0.18-1.035-0.686-1.187C18.602,5.651,17.998,4.895,18,4c-0.001-0.808,0.486-1.503,1.186-1.82
			C19.585,2,19.82,1.584,19.768,1.15c-0.052-0.435-0.378-0.784-0.808-0.865C18.006,0.106,17.018,0,16,0
			C7.174,0.002,0.002,7.174,0,16c0.002,8.826,7.174,15.998,16,16c8.826-0.002,15.998-7.174,16-16
			C32,14.982,31.894,13.994,31.715,13.04z M25.895,25.895C23.356,28.432,19.862,30,16,30c-3.862,0-7.356-1.568-9.895-4.105
			C3.568,23.356,2,19.862,2,16c0-3.862,1.568-7.356,4.105-9.895C8.644,3.568,12.138,2,16,2c0.18,0,0.356,0.019,0.535,0.027
			C16.201,2.609,16.001,3.279,16,4c0.002,1.493,0.83,2.773,2.037,3.456C18.018,7.634,18,7.812,18,8c0.002,3.311,2.689,5.998,6,6
			c0.188,0,0.366-0.018,0.544-0.037C25.227,15.169,26.506,15.998,28,16c0.721-0.001,1.391-0.201,1.973-0.535
			C29.981,15.643,30,15.82,30,16C30,19.862,28.432,23.356,25.895,25.895z"/>
		<circle style="fill:#E67373;" cx="12" cy="8" r="2"/>
		<circle style="fill:#E67373;" cx="8" cy="16" r="2"/>
		<circle style="fill:#E67373;" cx="18" cy="24" r="2"/>
		<circle style="fill:#E67373;" cx="17" cy="17" r="1"/>
		<circle style="fill:#E67373;" cx="25" cy="21" r="1"/>
		<circle style="fill:#E67373;" cx="11" cy="23" r="1"/>
	</g>
</g>
<g id="Layer_1">
</g>
</svg>
