<?xml version="1.0" encoding="iso-8859-1"?>
<!-- Generator: Adobe Illustrator 19.2.1, SVG Export Plug-In . SVG Version: 6.00 Build 0)  -->
<svg version="1.1" xmlns="http://www.w3.org/2000/svg" xmlns:xlink="http://www.w3.org/1999/xlink" x="0px" y="0px"
	 viewBox="0 0 30 31.984" style="enable-background:new 0 0 30 31.984;" xml:space="preserve">
<g id="Layer_53">
	<g>
		<path style="fill:#E67373;" d="M29,11.984h-2c-1.857,0-4,0.607-5,1.568V7.016c0-3.857-3.143-6.996-7-7
			c-1.932-0.001-3.689,0.783-4.952,2.048C8.783,3.327,8,5.084,8,7.016v6.536c-2-0.961-3.143-1.568-5-1.568H1
			c-0.263,0-0.521,0.122-0.707,0.309C0.107,12.479,0,12.745,0,13.008c0,0.132,0.027,0.266,0.077,0.386
			c0.05,0.121,0.123,0.218,0.216,0.311C0.479,13.891,0.737,13.984,1,13.984h0.001C2.644,13.984,4,15.373,4,17.016v6
			c0,4.957,4.043,8.968,9,8.968h2h2c4.957,0,9-4.012,9-8.968v-6c0-1.643,1.356-3.032,2.999-3.032H29
			c0.263,0,0.521-0.091,0.707-0.277C29.893,13.521,30,13.271,30,13.008c0-0.263-0.107-0.533-0.293-0.719
			C29.521,12.103,29.263,11.984,29,11.984z M8.057,27.959C6.785,26.685,6,24.94,6,23.016v-6c0-0.97-0.291-1.868-0.771-2.635
			c1.179,0.398,2.214,1.101,3.019,2.014C9.339,17.647,10,19.25,10,21.016v6c0,0.303,0.025,0.968,0.094,0.968h-0.002
			c0.002,0,0.007-0.005,0.01,0.011c0.002,0.009,0.002-0.011,0.004-0.011h0.001c0.096,1,0.294,1.134,0.564,1.594
			C9.682,29.226,8.79,28.69,8.057,27.959z M13.284,31.71c0,0,0.001,0,0.001,0c0.001,0,0.002,0.001,0.003,0.001L13.284,31.71z
			 M18,23.016v3.976l-0.016,0.32l-0.016,0.102c-0.018,0.167-0.058,0.31-0.094,0.457c-0.038,0.154-0.08,0.302-0.136,0.436
			c-0.037,0.087-0.08,0.165-0.124,0.243c-0.059,0.108-0.117,0.216-0.188,0.31c-0.081,0.104-0.173,0.195-0.267,0.284
			c-0.051,0.049-0.096,0.105-0.152,0.149c-0.164,0.13-0.342,0.243-0.535,0.339l-0.282,0.133l-0.041,0.019l-0.07,0.03
			c-0.33,0.111-0.701,0.17-1.075,0.17c-0.359,0-0.719-0.055-1.042-0.156c-0.246-0.095-0.447-0.195-0.662-0.333l-0.029-0.018
			c-0.614-0.375-1.061-0.93-1.203-1.812l-0.014-0.074C12.017,27.427,12,27.249,12,27.016v-6c0-2.132-1-4.085-2-5.63v-8.37
			c0-2.769,2.231-4.999,5-5c1.374,0,2.62,0.56,3.53,1.47C19.44,4.396,20,5.641,20,7.016v8.37c-2,1.545-2,3.498-2,5.63V23.016z
			 M24,17.016v6c0,1.924-0.785,3.67-2.057,4.943c-0.733,0.733-1.626,1.296-2.617,1.649c0.068-0.116,0.132-0.235,0.191-0.359
			c0.015-0.031,0.028-0.064,0.042-0.096c0.204-0.456,0.343-0.96,0.398-1.509l0.011-0.069l-0.484-0.048
			C19.484,27.514,19,27.504,19,27.493v-0.027l0.509-0.4L20,27.016v-6c0-1.766,0.661-3.369,1.752-4.621
			c0.805-0.914,1.84-1.617,3.019-2.015C24.291,15.147,24,16.046,24,17.016z"/>
		<path style="fill:#E67373;" d="M13,11.984h2c0.552,0,1-0.448,1-1c0-0.552-0.448-1-1-1h-2c-0.552,0-1,0.448-1,1
			C12,11.536,12.448,11.984,13,11.984z"/>
		<path style="fill:#E67373;" d="M17,5.984h-2c-0.552,0-1,0.448-1,1c0,0.552,0.448,1,1,1h2c0.552,0,1-0.448,1-1
			C18,6.432,17.552,5.984,17,5.984z"/>
		<path style="fill:#E67373;" d="M17,13.984h-2c-0.552,0-1,0.448-1,1c0,0.552,0.448,1,1,1h2c0.552,0,1-0.448,1-1
			C18,14.432,17.552,13.984,17,13.984z"/>
		<path style="fill:#E67373;" d="M16,18.984c0-0.552-0.448-1-1-1h-2c-0.552,0-1,0.448-1,1c0,0.552,0.448,1,1,1h2
			C15.552,19.984,16,19.536,16,18.984z"/>
		<path style="fill:#E67373;" d="M17,21.984h-2c-0.552,0-1,0.448-1,1c0,0.552,0.448,1,1,1h2c0.552,0,1-0.448,1-1
			C18,22.432,17.552,21.984,17,21.984z"/>
	</g>
</g>
<g id="Layer_1">
</g>
</svg>
