<?xml version="1.0" encoding="iso-8859-1"?>
<!-- Generator: Adobe Illustrator 19.2.1, SVG Export Plug-In . SVG Version: 6.00 Build 0)  -->
<svg version="1.1" xmlns="http://www.w3.org/2000/svg" xmlns:xlink="http://www.w3.org/1999/xlink" x="0px" y="0px"
	 viewBox="0 0 31.995 31.783" style="enable-background:new 0 0 31.995 31.783;" xml:space="preserve">
<g id="Layer_33">
	<g>
		<path style="fill:#E67373;" d="M6.761,0.354C6.571,0.13,6.291,0,5.998,0C4.465-0.001,2.923,0.586,1.755,1.755
			C0.586,2.923-0.001,4.465,0,5.998c-0.001,1.314,0.457,2.62,1.317,3.706C1.113,10.362,1,11.06,1,11.783
			c0,2.975,1.858,5.509,4.475,6.523c-1.321,1.11-2.328,2.163-2.908,2.812c-0.337,0.378-0.337,0.953,0,1.331
			c0.762,0.853,2.252,2.399,4.241,3.861C5.151,27.124,4.001,28.811,4,30.783c0,0.552,0.448,1,1,1c0.552,0,1-0.448,1-1h0
			c0.003-1.657,1.344-2.997,3-3c0.023,0,0.042-0.011,0.064-0.013c2.021,1.139,4.376,2.009,6.936,2.013
			c2.56-0.004,4.915-0.874,6.936-2.013c0.022,0.001,0.041,0.013,0.064,0.013c1.656,0.003,2.997,1.343,3,3c0,0.552,0.448,1,1,1
			c0.552,0,1-0.448,1-1h0c0-1.972-1.151-3.659-2.808-4.473c1.989-1.462,3.479-3.008,4.241-3.861c0.337-0.378,0.337-0.953,0-1.331
			c-0.58-0.649-1.587-1.702-2.908-2.812C29.142,17.292,31,14.758,31,11.783c0-0.724-0.113-1.424-0.318-2.083
			c0.857-1.085,1.314-2.39,1.314-3.702c0.001-1.532-0.586-3.075-1.755-4.243C29.072,0.586,27.53-0.001,25.998,0
			c-0.293,0-0.574,0.13-0.763,0.353c-0.189,0.224-0.271,0.522-0.223,0.811l0.77,4.616l-4.616-0.77
			c-0.289-0.048-0.587,0.034-0.811,0.223C20.13,5.424,20,5.705,20,5.998c-0.001,1.532,0.586,3.074,1.755,4.243
			c1.168,1.169,2.71,1.756,4.243,1.755c1.018,0.001,2.031-0.283,2.945-0.8C28.966,11.39,29,11.581,29,11.783
			c-0.005,2.604-1.999,4.714-4.541,4.953c-2.316-1.569-5.227-2.948-8.459-2.953c-3.233,0.005-6.143,1.384-8.459,2.953
			C4.999,16.497,3.005,14.386,3,11.783c0-0.201,0.034-0.391,0.057-0.585c0.913,0.515,1.924,0.798,2.94,0.797
			c1.532,0.001,3.074-0.586,4.242-1.755c1.169-1.168,1.756-2.71,1.755-4.243c0-0.293-0.13-0.574-0.354-0.763
			c-0.224-0.189-0.522-0.272-0.811-0.223l-4.616,0.77l0.77-4.616C7.032,0.875,6.95,0.577,6.761,0.354z M28.826,8.826
			c-0.781,0.781-1.8,1.168-2.828,1.169c-1.029-0.001-2.047-0.389-2.828-1.169c-0.467-0.468-0.776-1.025-0.963-1.614l4.627,0.771
			c0.32,0.053,0.642-0.05,0.872-0.279c0.229-0.229,0.332-0.552,0.279-0.872l-0.771-4.627c0.589,0.187,1.146,0.496,1.613,0.963
			c0.781,0.781,1.168,1.8,1.169,2.829C29.994,7.026,29.607,8.045,28.826,8.826z M8.154,18.752c0.307-0.049,0.56-0.228,0.707-0.489
			c2.083-1.382,4.579-2.485,7.14-2.48c2.56-0.005,5.056,1.098,7.14,2.48c0.146,0.261,0.4,0.44,0.707,0.489
			c1.467,1.059,2.671,2.194,3.475,3.031c-0.886,0.923-2.253,2.211-3.928,3.355c-2.132,1.46-4.731,2.651-7.394,2.645
			c-2.664,0.005-5.263-1.185-7.394-2.645c-1.675-1.144-3.041-2.432-3.928-3.355C5.483,20.946,6.686,19.811,8.154,18.752z
			 M9.789,7.212C9.602,7.801,9.293,8.358,8.826,8.826c-0.781,0.781-1.8,1.168-2.828,1.169C4.969,9.994,3.95,9.606,3.169,8.826
			C2.389,8.045,2.001,7.026,2,5.998C2.001,4.969,2.389,3.95,3.169,3.169c0.468-0.467,1.025-0.776,1.614-0.963L4.011,6.833
			c-0.053,0.32,0.05,0.642,0.279,0.872s0.552,0.332,0.872,0.279L9.789,7.212z"/>
		<path style="fill:#E67373;" d="M12.106,25.23c0.247,0.494,0.848,0.694,1.342,0.447c0.494-0.247,0.694-0.848,0.447-1.342l-2-4
			c-0.247-0.494-0.848-0.694-1.342-0.447c-0.494,0.247-0.694,0.848-0.447,1.342L12.106,25.23z"/>
		<path style="fill:#E67373;" d="M18.553,25.677c0.494,0.247,1.095,0.047,1.342-0.447l2-4c0.247-0.494,0.047-1.095-0.447-1.342
			c-0.494-0.247-1.095-0.047-1.342,0.447l-2,4C17.859,24.83,18.059,25.43,18.553,25.677z"/>
	</g>
</g>
<g id="Layer_1">
</g>
</svg>
