<?xml version="1.0" encoding="iso-8859-1"?>
<!-- Generator: Adobe Illustrator 19.2.1, SVG Export Plug-In . SVG Version: 6.00 Build 0)  -->
<svg version="1.1" xmlns="http://www.w3.org/2000/svg" xmlns:xlink="http://www.w3.org/1999/xlink" x="0px" y="0px"
	 viewBox="0 0 32.374 23.916" style="enable-background:new 0 0 32.374 23.916;" xml:space="preserve">
<g id="Layer_17">
	<path style="fill:#E67373;" d="M1.129,16.156c-0.354,1.298-0.542,2.644-0.542,4.044c0.005,1.05,0.085,1.821,0.355,2.483
		c0.137,0.328,0.341,0.644,0.653,0.882c0.309,0.241,0.713,0.356,1.064,0.352c0.894-0.033,1.518-0.466,2.252-0.973
		c0.536-0.389,1.12-0.875,1.729-1.389c0.473,0.296,1.012,0.453,1.553,0.452c0.643,0.001,1.294-0.214,1.829-0.64
		c0.81-0.646,1.667-1.27,2.534-1.782l0.056,0.056c0.559,0.559,1.309,0.859,2.076,0.859c0.284,0,0.57-0.041,0.85-0.125
		c0.231-0.07,0.443-0.108,0.649-0.136c0.206,0.028,0.418,0.066,0.649,0.136c0.279,0.084,0.566,0.126,0.85,0.126
		c0.767,0,1.517-0.301,2.076-0.859l0.056-0.056c0.867,0.512,1.724,1.136,2.534,1.782c0.536,0.427,1.186,0.641,1.83,0.641
		c0.54,0.001,1.08-0.156,1.553-0.452c0.61,0.514,1.193,1,1.729,1.389c0.735,0.507,1.358,0.94,2.253,0.973
		c0.351,0.005,0.754-0.111,1.064-0.352c0.47-0.366,0.687-0.867,0.822-1.402c0.133-0.544,0.185-1.176,0.186-1.963
		c0-1.4-0.187-2.746-0.542-4.044l0.27-0.27c0.562-0.563,0.859-1.315,0.859-2.075c0-0.422-0.091-0.849-0.278-1.247l-0.905,0.425
		l0.905-0.425c-0.569-1.211-1.273-2.343-2.087-3.388c0.225-0.434,0.352-0.907,0.351-1.38c0.001-0.81-0.328-1.771-0.968-2.367
		c-3.469-3.233-8.1-5.513-13.184-5.513h-0.042c-5.084,0-9.715,2.279-13.184,5.513c-0.64,0.596-0.969,1.485-0.968,2.295
		C2.013,8.197,2.14,8.705,2.365,9.14c-0.813,1.045-1.517,2.194-2.087,3.405C0.091,12.943,0,13.38,0,13.802
		c0,0.761,0.297,1.517,0.859,2.08L1.129,16.156z M3.74,21.323c-0.305,0.221-0.573,0.388-0.771,0.484l-0.191,0.077
		c-0.093-0.223-0.195-0.796-0.19-1.683c0-0.818,0.076-1.604,0.211-2.369l2.354,2.365C4.626,20.636,4.147,21.029,3.74,21.323z
		 M29.596,21.884c-0.216-0.068-0.667-0.326-1.198-0.737c-0.349-0.265-0.751-0.597-1.175-0.952l2.354-2.365
		c0.135,0.766,0.211,1.551,0.211,2.369C29.792,21.091,29.688,21.663,29.596,21.884z M30.285,13.414l0.089,0.397
		c0,0.244-0.094,0.482-0.273,0.662l-0.681,0.68l-4.34,4.36c-0.018,0.016-0.042,0.023-0.06,0.04l-0.181,0.181
		c-0.184,0.183-0.417,0.272-0.658,0.273c-0.206-0.001-0.408-0.066-0.583-0.205c-0.723-0.576-1.503-1.153-2.326-1.672l0.563-0.563
		l6.219-6.199c0.018-0.018,0.025-0.042,0.041-0.061l0.587-0.587C29.298,11.558,29.836,12.458,30.285,13.414z M4.346,7.036
		c3.124-2.91,7.277-4.73,11.841-4.831c4.565,0.101,8.717,1.921,11.841,4.831c0.222,0.207,0.33,0.481,0.331,0.76
		c-0.001,0.262-0.095,0.511-0.293,0.711L28.06,8.513l0,0l-1.42,1.42c-0.017,0.017-0.024,0.041-0.04,0.06l-6.179,6.159l-1.481,1.481
		l-0.593,0.593c-0.177,0.178-0.416,0.273-0.662,0.274l-0.271-0.195c-0.368-0.111-0.743-0.388-1.124-0.388h-0.207
		c-0.381,0-0.756,0.276-1.124,0.388l-0.271,0.118c-0.245,0-0.484-0.057-0.661-0.235l-0.593-0.573l-1.48-1.47L5.774,9.987
		c-0.016-0.018-0.023-0.04-0.04-0.057l-1.42-1.419L4.308,8.506c-0.198-0.2-0.292-0.448-0.293-0.71
		C4.015,7.517,4.124,7.244,4.346,7.036z M2.089,13.414c0.449-0.955,0.987-1.856,1.605-2.693l0.587,0.587
		c0.016,0.019,0.023,0.043,0.041,0.061l6.22,6.2l0.561,0.561c-0.823,0.52-1.603,1.097-2.326,1.673
		c-0.175,0.139-0.377,0.204-0.583,0.205c-0.241-0.001-0.474-0.09-0.658-0.273l-0.181-0.181c-0.017-0.017-0.041-0.024-0.06-0.04
		l-4.339-4.359l-0.682-0.682C2.094,14.293,2,14.055,2,13.811L2.089,13.414l-0.905-0.425L2.089,13.414z"/>
</g>
<g id="Layer_1">
</g>
</svg>
