<?xml version="1.0" encoding="iso-8859-1"?>
<!-- Generator: Adobe Illustrator 19.2.1, SVG Export Plug-In . SVG Version: 6.00 Build 0)  -->
<svg version="1.1" xmlns="http://www.w3.org/2000/svg" xmlns:xlink="http://www.w3.org/1999/xlink" x="0px" y="0px"
	 viewBox="0 0 32 32" style="enable-background:new 0 0 32 32;" xml:space="preserve">
<g id="Layer_29">
	<path style="fill:#E67373;" d="M4,22h0.18l1.518,7.588C5.979,30.991,7.209,32,8.64,32H23.36c1.43,0,2.661-1.009,2.942-2.412
		L27.82,22H28c2.211,0,3.996-1.789,4-4c-0.004-2.211-1.789-3.996-4-4h-0.183c-0.731-4.353-3.811-7.909-7.885-9.32
		C19.972,4.457,20,4.231,20,4c-0.004-2.211-1.789-3.996-4-4c-2.211,0.004-3.996,1.789-4,4c0,0.231,0.028,0.457,0.068,0.68
		C7.993,6.091,4.914,9.647,4.183,14H4c-2.211,0.004-3.996,1.789-4,4C0.004,20.211,1.789,22,4,22z M12,30H8.64
		c-0.477,0-0.887-0.337-0.981-0.804L6.22,22H12l0,0V30z M18,30h-4v-8h4l0,0V30z M24.341,29.196C24.248,29.663,23.837,30,23.36,30H20
		v-8h5.78L24.341,29.196z M16,2c1.109,0.001,1.999,0.891,2,2c0,0.313-0.078,0.607-0.216,0.858l-0.029,0.057
		C17.461,5.543,16.791,6.001,16,6c-0.791,0.001-1.461-0.457-1.755-1.085l-0.029-0.057C14.078,4.607,14,4.313,14,4
		C14.001,2.891,14.891,2.001,16,2z M4,16h1.06c0.519,0,0.95-0.394,0.996-0.911c0.357-4.025,3.137-7.38,6.849-8.583
		C13.626,7.417,14.746,7.999,16,8c1.254-0.001,2.374-0.583,3.095-1.494c3.712,1.203,6.492,4.558,6.849,8.583
		C25.99,15.606,26.421,16,26.94,16H28c1.109,0,1.999,0.891,2,2c-0.001,1.109-0.891,1.999-2,2h-1H5H4c-1.109-0.001-1.999-0.891-2-2
		C2.001,16.891,2.891,16,4,16z"/>
</g>
<g id="Layer_1">
</g>
</svg>
