<?xml version="1.0" encoding="iso-8859-1"?>
<!-- Generator: Adobe Illustrator 19.2.1, SVG Export Plug-In . SVG Version: 6.00 Build 0)  -->
<svg version="1.1" xmlns="http://www.w3.org/2000/svg" xmlns:xlink="http://www.w3.org/1999/xlink" x="0px" y="0px"
	 viewBox="0 0 32 32" style="enable-background:new 0 0 32 32;" xml:space="preserve">
<g id="Layer_7">
	<g>
		<path style="fill:#E67373;" d="M0.19,18.322c0,0.003,0.001,0.006,0.002,0.01c0.001,0.004,0.001,0.008,0.002,0.013l0.001,0
			C1.315,26.062,7.963,31.997,16,32c5.952-0.001,11.16-3.265,13.909-8.106l0.011-0.04C31.258,21.53,32,18.844,32,16
			C31.999,7.167,24.833,0.001,16,0C7.167,0.001,0.001,7.167,0,16C0,16.786,0.064,17.556,0.19,18.322L0.19,18.322z M6.102,6.102
			C8.639,3.566,12.133,2,16,2c3.867,0,7.36,1.566,9.898,4.102c2.104,2.105,3.525,4.875,3.953,7.964
			C29.659,14.028,29.334,14,29.13,14C27.473,14.004,26,15.343,26,17v4c0,0.543-0.457,0.999-1,1c-0.543-0.001-1-0.457-1-1v-4
			c0-1.518-1.002-2.756-2.464-2.958c-0.813-2.35-2.974-4.041-5.601-4.042c-2.643,0.001-4.85,1.713-5.65,4.086
			C8.959,14.398,8,15.579,8,17v2c0,0.543-0.457,0.999-1,1c-0.543-0.001-1-0.457-1-1v-2c0-1.657-1.343-2.996-3-3
			c-0.3,0.001-0.589,0.047-0.86,0.129C2.557,11.014,3.984,8.222,6.102,6.102z M20,16c-0.001,0.539-0.096,1.022-0.284,1.478
			l-0.004,0.009c-0.494,1.229-1.583,2.159-2.904,2.431C16.538,19.968,16.259,20,16,20c-0.893,0.001-1.751-0.308-2.397-0.798
			L13.6,19.2c-0.765-0.576-1.301-1.393-1.516-2.368l-0.002-0.016C12.031,16.543,12,16.261,12,16c0.004-2.207,1.793-3.996,4-4
			C18.207,12.004,19.996,13.793,20,16z M2.095,16.584C2.237,16.258,2.596,15.995,3,16c0.543,0.001,1,0.457,1,1v2
			c0,1.657,1.343,2.996,3,3c1.657-0.004,3-1.343,3-3v-1.366c0,1.278,1.238,2.388,2.275,3.164c0.993,0.749,2.208,1.2,3.555,1.201
			c0.418,0,0.17-0.049,1.17-0.117v-0.124c2-0.392,3.437-1.656,4.21-3.523l0.156-0.003c0,0.001,0.1,0.002,0.1,0.002
			c0.251-0.608,0.292-1.26,0.325-1.928C21.967,16.489,22,16.733,22,17v4c0,1.657,1.343,2.996,3,3c1.657-0.004,3-1.343,3-3v-4
			c0-0.543,0.587-0.999,1.13-1c0.288-0.002,0.614,0.129,0.794,0.323c-0.054,2.383-0.661,4.614-1.783,6.556l0.006,0.036
			c-2.412,4.233-6.953,7.085-12.156,7.084C8.956,30.003,3.135,24.789,2.166,18.038l-0.001-0.022
			c-0.074-0.443-0.113-0.887-0.138-1.334L2.095,16.584z"/>
		<polygon style="fill:#E67373;" points="12.399,20.799 12.397,20.798 12.4,20.8 		"/>
		<path style="fill:#E67373;" d="M7.707,11.707l2-2c0.391-0.391,0.391-1.024,0-1.414c-0.391-0.391-1.024-0.391-1.414,0l-2,2
			c-0.391,0.391-0.391,1.024,0,1.414C6.683,12.098,7.316,12.098,7.707,11.707z"/>
		<path style="fill:#E67373;" d="M16.293,7.707c0.391,0.391,1.024,0.391,1.414,0c0.391-0.391,0.391-1.024,0-1.414l-2-2
			c-0.391-0.391-1.024-0.391-1.414,0c-0.391,0.391-0.391,1.024,0,1.414L16.293,7.707z"/>
		<path style="fill:#E67373;" d="M23,10h2c0.552,0,1-0.448,1-1s-0.448-1-1-1h-2c-0.552,0-1,0.448-1,1S22.448,10,23,10z"/>
	</g>
</g>
<g id="Layer_1">
</g>
</svg>
