<?xml version="1.0" encoding="iso-8859-1"?>
<!-- Generator: Adobe Illustrator 19.2.1, SVG Export Plug-In . SVG Version: 6.00 Build 0)  -->
<svg version="1.1" xmlns="http://www.w3.org/2000/svg" xmlns:xlink="http://www.w3.org/1999/xlink" x="0px" y="0px"
	 viewBox="0 0 32.001 16" style="enable-background:new 0 0 32.001 16;" xml:space="preserve">
<g id="Layer_2">
	<path style="fill:#E67373;" d="M28.064,3.719C25.785,1.904,22.622,0.012,19,0c-3.622,0.012-6.785,1.904-9.064,3.719
		C8.463,4.899,7.36,6.06,6.75,6.75L1.707,1.707C1.421,1.421,0.991,1.335,0.617,1.49C0.244,1.645,0,2.01,0,2.414v11.172
		c0,0.404,0.244,0.769,0.617,0.924c0.374,0.155,0.804,0.069,1.09-0.217L6.75,9.25c0.61,0.69,1.713,1.851,3.186,3.031
		C12.215,14.096,15.378,15.988,19,16c3.622-0.012,6.785-1.904,9.064-3.719c2.28-1.826,3.692-3.626,3.722-3.663
		c0.285-0.363,0.285-0.872,0-1.235C31.756,7.345,30.344,5.545,28.064,3.719z M2,11.172l0-6.343L5.172,8L2,11.172z M23.313,12.935
		C21.949,13.576,20.483,14.005,19,14c-2.883,0.012-5.72-1.596-7.815-3.281c-1.046-0.837-1.905-1.681-2.497-2.31
		C8.548,8.259,8.424,8.123,8.315,8c0.628-0.702,1.779-1.896,3.272-3.033C13.636,3.398,16.297,1.99,19,2
		c1.483-0.006,2.951,0.42,4.315,1.061C22.483,4.519,22,6.206,22,8C22,9.793,22.482,11.477,23.313,12.935z M26.414,11.032
		c-0.421,0.322-0.872,0.633-1.34,0.931C24.4,10.791,24,9.448,24,8c0-1.45,0.401-2.795,1.076-3.967
		c0.62,0.394,1.203,0.818,1.738,1.248c1.046,0.837,1.905,1.681,2.497,2.31c0.141,0.15,0.265,0.286,0.374,0.409
		C29.058,8.701,27.906,9.896,26.414,11.032z"/>
	<circle style="fill:#E67373;" cx="27" cy="7" r="1"/>
	<path style="fill:#E67373;" d="M19,8c0.552,0,1-0.448,1-1c0-0.552-0.448-1-1-1c-1.657,0.002-2.998,1.343-3,3
		c0.002,1.657,1.343,2.998,3,3c0.552,0,1-0.448,1-1c0-0.552-0.448-1-1-1v0c-0.548-0.001-0.999-0.452-1-1
		C18.001,8.452,18.452,8.001,19,8z"/>
</g>
<g id="Layer_1">
</g>
</svg>
