<?xml version="1.0" encoding="iso-8859-1"?>
<!-- Generator: Adobe Illustrator 19.2.1, SVG Export Plug-In . SVG Version: 6.00 Build 0)  -->
<svg version="1.1" xmlns="http://www.w3.org/2000/svg" xmlns:xlink="http://www.w3.org/1999/xlink" x="0px" y="0px"
	 viewBox="0 0 25.016 32" style="enable-background:new 0 0 25.016 32;" xml:space="preserve">
<g id="Layer_12">
	<path style="fill:#E67373;" d="M23.505,12.436V5C23.504,3.342,22.166,2,20.509,2c-1.386,0-2.539,0.943-2.884,2.22
		C17.279,4.081,16.904,4,16.509,4c-0.352,0-0.686,0.072-1,0.184V3c0-1.658-1.342-3-3-3c-1.657,0-2.999,1.342-3,3v1.184
		C9.195,4.072,8.861,4,8.509,4C8.114,4,7.738,4.081,7.393,4.22C7.048,2.943,5.894,2,4.509,2c-1.657,0-2.999,1.342-3,3v7.436
		C0.598,12.956,0.002,13.917,0,15.002c0,0.218,0.024,0.438,0.072,0.655l1.248,5.595l0.872,3.963l0.991,4.439
		C3.49,31.025,4.706,32,6.111,32h12.795c1.405,0,2.621-0.975,2.928-2.346l0.991-4.436l0.874-3.976l1.246-5.585l0.001-0.006
		c0.046-0.214,0.071-0.432,0.07-0.649C25.014,13.917,24.414,12.957,23.505,12.436z M19.505,5c0.001-0.552,0.452-0.999,1.004-1
		c0.552,0.001,0.999,0.448,1,1v7h-2.004V5z M15.505,7c0.001-0.552,0.452-0.999,1.004-1c0.552,0.001,0.999,0.448,1,1v5v1
		c-0.001,0.832-0.328,1.566-0.878,2.103l-0.02,0.02c-0.307,0.315-0.688,0.545-1.107,0.694V7z M11.505,3
		c0.001-0.552,0.452-0.999,1.004-1c0.552,0.001,0.999,0.448,1,1v4v9h-2.004V3z M7.505,6.999C7.507,6.447,7.957,6.001,8.509,6
		c0.551,0.001,0.999,0.448,1,1v8.812c-1.155-0.418-2-1.519-2.004-2.81V6.999z M3.505,5c0.001-0.552,0.452-0.999,1.004-1
		c0.552,0.001,0.999,0.448,1,1v2v5H3.505V5z M19.882,29.218C19.78,29.675,19.374,30,18.906,30H6.111
		c-0.468,0-0.874-0.325-0.976-0.782L4.416,26h16.184L19.882,29.218z M21.045,24H3.973l-0.44-2h17.952L21.045,24z M22.993,15.222
		L21.927,20H3.09l-1.065-4.778L2,15.002c-0.002-0.388,0.242-0.728,0.574-0.879l0.285-0.107L3.009,14h2.602
		c0.4,1.955,1.943,3.6,3.898,4h6c0.652-0.132,1.261-0.492,1.796-0.858c0.259-0.178,0.499-0.382,0.72-0.607l0.002,0.002
		c0.003-0.003,0.006-0.007,0.009-0.011c0.003-0.003,0.007-0.006,0.011-0.009l-0.002-0.002c0.688-0.675,1.168-1.548,1.365-2.515h2.6
		l0.15,0.017l0.061,0.023h0l0.219,0.082c0.334,0.15,0.58,0.493,0.578,0.881l-0.025,0.226L22.993,15.222z"/>
</g>
<g id="Layer_1">
</g>
</svg>
