<?xml version="1.0" encoding="iso-8859-1"?>
<!-- Generator: Adobe Illustrator 19.2.1, SVG Export Plug-In . SVG Version: 6.00 Build 0)  -->
<svg version="1.1" xmlns="http://www.w3.org/2000/svg" xmlns:xlink="http://www.w3.org/1999/xlink" x="0px" y="0px"
	 viewBox="0 0 26 32" style="enable-background:new 0 0 26 32;" xml:space="preserve">
<g id="Layer_28">
	<path style="fill:#E67373;" d="M19,2c0.552,0,1-0.448,1-1c0-0.552-0.448-1-1-1c-3.559,0-6.489,2.657-6.935,6.094
		C10.811,6.332,9.734,7.042,9,8.028C8.089,6.803,6.644,6,5,6C2.238,6,0.001,8.238,0,11c0.001,2.762,2.238,4.999,5,5
		c0.008,0,0.016-0.002,0.025-0.002C4.391,16.835,4,17.868,4,19c0.001,2.762,2.238,4.999,5,5c0.008,0,0.016-0.002,0.025-0.003
		C8.391,24.835,8,25.868,8,27c0.001,2.762,2.238,4.999,5,5c2.762-0.001,4.999-2.238,5-5c0-1.132-0.391-2.165-1.025-3.003
		C16.984,23.997,16.991,24,17,24c2.762-0.001,4.999-2.238,5-5c0-1.132-0.391-2.165-1.025-3.003C20.984,15.997,20.991,16,21,16
		c2.762-0.001,4.999-2.238,5-5C25.999,8.238,23.762,6,21,6c-1.644,0-3.089,0.804-4,2.028c-0.703-0.945-1.722-1.636-2.911-1.901
		C14.507,3.785,16.538,2.004,19,2z M9,13.972c0.008,0.01,0.017,0.02,0.025,0.03C9.016,14.002,9.008,14,9,14
		c-0.009,0-0.016,0.002-0.025,0.002C8.983,13.992,8.992,13.983,9,13.972z M5,14c-1.657-0.003-2.997-1.344-3-3
		c0.003-1.657,1.343-2.997,3-3c1.656,0.003,2.997,1.344,3,3C7.997,12.656,6.656,13.997,5,14z M9,22c-1.657-0.003-2.997-1.344-3-3
		c0.003-1.657,1.343-2.997,3-3c1.656,0.003,2.997,1.344,3,3C11.997,20.656,10.656,21.997,9,22z M13,30c-1.657-0.003-2.997-1.344-3-3
		c0.003-1.657,1.343-2.997,3-3c1.656,0.003,2.997,1.344,3,3C15.997,28.656,14.656,29.997,13,30z M13,21.972
		c0.008,0.01,0.017,0.02,0.025,0.03C13.016,22.002,13.008,22,13,22c-0.009,0-0.016,0.002-0.025,0.003
		C12.983,21.992,12.992,21.983,13,21.972z M12.975,15.997C12.984,15.997,12.991,16,13,16c0.008,0,0.016-0.002,0.025-0.002
		c-0.008,0.01-0.017,0.02-0.025,0.03C12.992,16.017,12.983,16.008,12.975,15.997z M21,8c1.656,0.003,2.997,1.344,3,3
		c-0.003,1.656-1.344,2.997-3,3c-1.657-0.003-2.997-1.344-3-3C18.003,9.343,19.343,8.003,21,8z M17,13.972
		c0.008,0.01,0.017,0.02,0.025,0.03C17.016,14.002,17.008,14,17,14c-0.009,0-0.016,0.002-0.025,0.002
		C16.983,13.992,16.992,13.983,17,13.972z M17,16c1.656,0.003,2.997,1.344,3,3c-0.003,1.656-1.344,2.997-3,3
		c-1.657-0.003-2.997-1.344-3-3C14.003,17.343,15.343,16.003,17,16z M16,11c-0.003,1.656-1.344,2.997-3,3
		c-1.657-0.003-2.997-1.344-3-3c0.003-1.656,1.343-2.997,3-3l0,0l0,0C14.657,8.003,15.997,9.343,16,11z"/>
</g>
<g id="Layer_1">
</g>
</svg>
