<?xml version="1.0" encoding="iso-8859-1"?>
<!-- Generator: Adobe Illustrator 19.2.1, SVG Export Plug-In . SVG Version: 6.00 Build 0)  -->
<svg version="1.1" xmlns="http://www.w3.org/2000/svg" xmlns:xlink="http://www.w3.org/1999/xlink" x="0px" y="0px"
	 viewBox="0 0 32 32" style="enable-background:new 0 0 32 32;" xml:space="preserve">
<g id="Layer_19">
	<path style="fill:#E67373;" d="M28.192,9.808C28.192,9.807,28.192,9.807,28.192,9.808c-1.018-1.017-2.21-1.853-3.517-2.49
		C22.567,2.992,18.139,0.001,13,0C5.82,0.001,0.001,5.82,0,13c0.001,5.139,2.992,9.567,7.318,11.675
		c0.636,1.307,1.472,2.5,2.489,3.516c0,0,0,0.001,0,0.001c0.001,0.001,0.001,0.001,0.001,0.001C12.161,30.545,15.41,32,19,32l0,0
		l0,0c3.589,0,6.839-1.455,9.191-3.807c0,0,0.001,0,0.001-0.001c0,0,0-0.001,0.001-0.001C30.545,25.839,32,22.59,32,19
		C32,15.41,30.545,12.161,28.192,9.808L28.192,9.808z M23.801,9.06c0.882,0.399,1.624,0.896,2.335,1.489L20,16.586V8.077
		C21,8.309,23.789,9.059,23.801,9.06z M7.022,13.94c-0.092,0.216-0.163,0.443-0.243,0.665c-0.064,0.177-0.138,0.349-0.194,0.53
		c-0.052,0.168-0.086,0.342-0.132,0.513c-0.065,0.244-0.137,0.484-0.188,0.733c-0.038,0.185-0.056,0.376-0.086,0.564
		C6.071,17.615,6,18.299,6,19c0,0.469,0.028,0.931,0.076,1.386C6.084,20.46,6.1,20.53,6.109,20.604
		c0.045,0.367,0.099,0.732,0.174,1.089C3.68,19.682,1.999,16.542,2,13c0-3.041,1.23-5.784,3.222-7.778C7.216,3.23,9.959,2,13,2
		c3.542-0.001,6.682,1.68,8.692,4.283c-0.357-0.075-0.721-0.128-1.088-0.174C20.531,6.1,20.46,6.084,20.386,6.076
		C19.931,6.028,19.469,6,19,6c-0.701,0-1.385,0.071-2.056,0.178c-0.188,0.03-0.379,0.048-0.564,0.086
		c-0.249,0.051-0.489,0.124-0.733,0.188c-0.17,0.045-0.345,0.08-0.513,0.132c-2.035,0.633-3.856,1.753-5.326,3.223c0,0,0,0-0.001,0
		c0,0,0,0,0,0.001C8.631,10.984,7.68,12.385,7.022,13.94z M18,8.05v8.535l-5.906-6.037c0.845-0.705,1.681-1.282,2.624-1.709
		c0.564-0.234,1.055-0.417,1.662-0.555C16.894,8.178,18,8.095,18,8.05z M8.054,17.933c0.008-0.087,0.023-0.171,0.033-0.257
		c0.03-0.248,0.066-0.494,0.112-0.736c0.022-0.116,0.047-0.23,0.072-0.344c0.049-0.218,0.105-0.434,0.166-0.647
		c0.031-0.107,0.059-0.215,0.093-0.32c0.096-0.298,0.201-0.593,0.322-0.879c0.03-0.072,0.067-0.141,0.098-0.212
		c0.098-0.22,0.201-0.437,0.313-0.649c0.061-0.115,0.126-0.228,0.191-0.341c0.095-0.166,0.194-0.329,0.297-0.489
		c0.073-0.113,0.146-0.226,0.222-0.336c0.119-0.171,0.246-0.337,0.375-0.501c0.067-0.085,0.13-0.174,0.199-0.257l0,0L16.586,18H8.05
		C8.053,17.978,8.052,17.955,8.054,17.933z M8.983,23.53c-0.002-0.003-0.001-0.007-0.003-0.011c-0.305-0.676-0.543-1.385-0.71-2.122
		c-0.01-0.044-0.018-0.088-0.028-0.132c-0.066-0.308-0.116-0.622-0.155-0.938c-0.008-0.067-0.019-0.132-0.026-0.2
		C8.057,20.086,8.059,20.042,8.055,20h8.531l-6.037,6.037C9.918,25.281,9.394,24.437,8.983,23.53z M18,29.949
		c-3-0.206-4.369-1.108-6.037-2.498L18,21.414V29.949z M19,20c-0.552,0-1-0.448-1-1c0-0.552,0.448-1,1-1s1,0.448,1,1
		C20,19.552,19.552,20,19,20z M20,29.949v-8.535l6.037,6.037C24.369,28.842,22,29.743,20,29.949z M27.451,26.037L21.414,20h8.535
		C29.743,22.288,28.842,24.369,27.451,26.037z M21.414,18l6.037-6.037c1.391,1.668,2.292,3.75,2.498,6.037H21.414z"/>
</g>
<g id="Layer_1">
</g>
</svg>
