<?xml version="1.0" encoding="iso-8859-1"?>
<!-- Generator: Adobe Illustrator 19.2.1, SVG Export Plug-In . SVG Version: 6.00 Build 0)  -->
<svg version="1.1" xmlns="http://www.w3.org/2000/svg" xmlns:xlink="http://www.w3.org/1999/xlink" x="0px" y="0px"
	 viewBox="0 0 31.859 31.853" style="enable-background:new 0 0 31.859 31.853;" xml:space="preserve">
<g id="Layer_26">
	<path style="fill:#E67373;" d="M0,28.856c-0.001,0.764,0.292,1.538,0.876,2.121c0.584,0.584,1.358,0.877,2.122,0.876
		c0.763,0.001,1.537-0.292,2.121-0.876l13.128-13.128c0.584,0.584,1.358,0.877,2.121,0.876c0.764,0.001,1.538-0.292,2.121-0.876
		c0.279-0.279,0.487-0.602,0.633-0.946c0.462,0.264,0.975,0.408,1.489,0.408c0.115,0,0.229-0.02,0.344-0.033l-3.962,5.463
		L20.953,22.8c-0.594,0.955-0.889,2.043-0.889,3.128c0,1.084,0.295,2.17,0.889,3.122c1.079,1.731,2.965,2.774,5.006,2.772
		c1.101,0,2.182-0.31,3.119-0.896l0,0c1.799-1.127,2.781-3.065,2.78-5.025c0-1.044-0.28-2.103-0.867-3.043l-0.039-0.058l-4.19-5.783
		c-0.097-0.133-0.224-0.237-0.367-0.309c0.115-0.086,0.232-0.17,0.336-0.274l0,0c0.544-0.544,0.824-1.253,0.861-1.965
		c0.713-0.036,1.423-0.319,1.967-0.864l0,0c0.584-0.583,0.88-1.357,0.879-2.121c0.001-0.514-0.144-1.026-0.409-1.488
		c0.343-0.147,0.666-0.355,0.944-0.633l0,0c0.584-0.583,0.88-1.357,0.879-2.121c0.001-0.765-0.295-1.538-0.879-2.122l-4.242-4.243
		C26.149,0.295,25.375-0.001,24.611,0c-0.764-0.001-1.538,0.295-2.121,0.879C22.214,1.154,22,1.476,21.852,1.821
		c-0.46-0.263-0.972-0.407-1.484-0.407c-0.764-0.001-1.538,0.295-2.121,0.879l0,0c-0.545,0.544-0.828,1.254-0.864,1.967
		c-0.712,0.037-1.421,0.318-1.964,0.861l0,0c-0.584,0.584-0.877,1.358-0.876,2.121c-0.001,0.513,0.143,1.027,0.408,1.489
		c-0.344,0.146-0.667,0.354-0.946,0.633v0h0c-0.584,0.584-0.877,1.358-0.876,2.121c-0.001,0.764,0.292,1.537,0.876,2.121h0
		L0.876,26.735C0.292,27.318-0.001,28.092,0,28.856z M29.303,23.932c0.375,0.607,0.555,1.285,0.556,1.969
		c-0.001,1.298-0.652,2.587-1.841,3.329c-0.621,0.388-1.332,0.592-2.059,0.592c-1.365-0.003-2.587-0.68-3.31-1.832
		c-0.388-0.621-0.585-1.339-0.585-2.062c0-0.717,0.195-1.433,0.579-2.055l3.31-4.565L29.303,23.932z M23.904,2.293
		C24.102,2.096,24.352,2.001,24.611,2c0.259,0.001,0.509,0.096,0.707,0.293l4.243,4.243l0,0c0.197,0.198,0.292,0.448,0.293,0.707
		c-0.001,0.259-0.096,0.509-0.293,0.707c-0.198,0.197-0.448,0.292-0.707,0.293c-0.259-0.001-0.509-0.096-0.707-0.293l-4.243-4.243
		c-0.195-0.196-0.291-0.451-0.293-0.739C23.611,2.738,23.704,2.493,23.904,2.293z M19.661,3.707L19.661,3.707
		c0.198-0.197,0.448-0.292,0.707-0.293c0.259,0.001,0.509,0.096,0.707,0.293l1.414,1.414l0,0l0,0l2.121,2.121l3.536,3.536l0,0
		c0.197,0.197,0.292,0.447,0.293,0.707c-0.001,0.259-0.096,0.509-0.293,0.707c-0.198,0.197-0.448,0.292-0.707,0.293
		c-0.259-0.001-0.509-0.096-0.707-0.293l-7.071-7.071v0c-0.197-0.198-0.292-0.448-0.293-0.707
		C19.369,4.155,19.464,3.905,19.661,3.707z M16.833,6.536c0.194-0.194,0.445-0.289,0.707-0.29c0.262,0.001,0.513,0.097,0.707,0.29
		l7.071,7.071l0,0c0.194,0.194,0.289,0.445,0.29,0.707c-0.001,0.262-0.097,0.513-0.291,0.707c-0.194,0.194-0.445,0.289-0.707,0.29
		c-0.262-0.001-0.513-0.097-0.707-0.29l-1.414-1.414l0,0l-2.121-2.121L16.833,7.95c-0.194-0.194-0.29-0.445-0.291-0.707
		C16.543,6.981,16.639,6.73,16.833,6.536l-0.707-0.707L16.833,6.536z M15.418,10.778c0.194-0.194,0.445-0.289,0.707-0.291
		c0.262,0.001,0.513,0.097,0.707,0.291l4.243,4.243c0.194,0.194,0.289,0.445,0.29,0.707c-0.001,0.262-0.097,0.513-0.29,0.707
		c-0.194,0.194-0.445,0.29-0.707,0.291c-0.262-0.001-0.513-0.097-0.707-0.291l-4.243-4.243c-0.194-0.194-0.29-0.446-0.29-0.707
		C15.129,11.224,15.225,10.972,15.418,10.778l-0.707-0.707L15.418,10.778z M2.29,28.149l13.128-13.128l1.414,1.414L3.705,29.563
		c-0.194,0.194-0.445,0.289-0.707,0.29c-0.262-0.001-0.513-0.097-0.707-0.29C2.097,29.369,2.001,29.118,2,28.856
		C2.001,28.594,2.097,28.343,2.29,28.149z"/>
</g>
<g id="Layer_1">
</g>
</svg>
