<?xml version="1.0" encoding="iso-8859-1"?>
<!-- Generator: Adobe Illustrator 19.2.1, SVG Export Plug-In . SVG Version: 6.00 Build 0)  -->
<svg version="1.1" xmlns="http://www.w3.org/2000/svg" xmlns:xlink="http://www.w3.org/1999/xlink" x="0px" y="0px"
	 viewBox="0 0 32 32" style="enable-background:new 0 0 32 32;" xml:space="preserve">
<g id="Layer_11">
	<g>
		<path style="fill:#E67373;" d="M2.167,21.348c-1.169,1.168-1.756,2.71-1.755,4.243c-0.001,1.532,0.586,3.074,1.755,4.243
			l0.707-0.707l-0.707,0.707c1.168,1.169,2.71,1.756,4.243,1.755c1.532,0.001,3.074-0.586,4.243-1.755l0.707,0.707
			c0.973,0.973,2.259,1.461,3.536,1.46c1.276,0.001,2.563-0.487,3.535-1.46l12.11-12.11l-0.707-0.707l0.707,0.707
			c0.975-0.974,1.461-2.263,1.46-3.539c0.001-1.276-0.488-2.561-1.46-3.532l-0.707-0.707c1.169-1.168,1.756-2.71,1.755-4.243
			c0.001-1.532-0.586-3.074-1.755-4.243c-1.168-1.169-2.71-1.756-4.243-1.755c-1.532-0.001-3.074,0.586-4.243,1.755L20.641,1.46
			C19.669,0.488,18.384-0.001,17.108,0c-1.276-0.001-2.564,0.486-3.538,1.46L1.46,13.57C0.487,14.542-0.001,15.829,0,17.105
			c-0.001,1.276,0.487,2.563,1.46,3.536L2.167,21.348z M30,14.891c-0.001,0.777-0.291,1.542-0.874,2.125l-12.11,12.11
			c-0.583,0.583-1.347,0.873-2.121,0.874c-0.774-0.001-1.538-0.291-2.121-0.874l-0.707-0.707l16.353-16.353l0.707,0.707
			C29.709,13.356,29.999,14.119,30,14.891z M22.055,4.288l0.707-0.707c0.781-0.781,1.8-1.168,2.828-1.169
			c1.029,0.001,2.047,0.388,2.828,1.169c0.781,0.781,1.168,1.8,1.169,2.828c-0.001,1.028-0.389,2.047-1.169,2.829l-0.707,0.707
			L9.945,27.712l-0.707,0.707c-0.781,0.781-1.8,1.168-2.828,1.169c-1.029-0.001-2.047-0.389-2.828-1.169
			c-0.781-0.781-1.168-1.8-1.169-2.828c0.001-1.029,0.389-2.047,1.169-2.828l0.707-0.707l0,0L22.055,4.288z M2.874,14.984
			l12.11-12.11C15.567,2.291,16.332,2.001,17.108,2c0.773,0.001,1.536,0.291,2.119,0.874l0.707-0.707l-0.707,0.707l0.707,0.707
			L3.581,19.934l-0.707-0.707C2.291,18.644,2.001,17.88,2,17.105C2.001,16.331,2.291,15.567,2.874,14.984z"/>
		<path style="fill:#E67373;" d="M6.201,26.918c0.552,0,1-0.448,1-1c0-0.111-0.03-0.212-0.063-0.312l0.012-0.004l-0.067-0.403
			c0-0.326,0.136-0.632,0.366-0.863c0.231-0.23,0.537-0.366,0.863-0.366l0.402,0.068l0.001,0v0c0.343,0.114,0.693,0.17,1.034,0.169
			c1.78-0.011,3.218-1.448,3.229-3.228c0-0.341-0.055-0.691-0.17-1.035l-0.067-0.402c0-0.326,0.136-0.632,0.366-0.863
			c0.231-0.23,0.537-0.366,0.863-0.366l0.402,0.067l0.001,0v0c0.343,0.114,0.693,0.17,1.034,0.17
			c1.78-0.011,3.218-1.448,3.229-3.229c0-0.341-0.055-0.691-0.17-1.034h0l-0.067-0.403c0-0.326,0.136-0.632,0.366-0.863
			c0.231-0.23,0.537-0.366,0.863-0.366l0.402,0.068l0.001,0l0,0c0.343,0.114,0.693,0.17,1.034,0.17
			c1.78-0.011,3.218-1.448,3.229-3.228c0-0.341-0.055-0.691-0.17-1.034l-0.067-0.402c0-0.326,0.136-0.632,0.366-0.863
			C24.65,7.136,24.956,7,25.282,7l0.402,0.067L26,7.119c0.552,0,1-0.448,1-1c0-0.442-0.291-0.804-0.688-0.937l0.004-0.012
			C25.973,5.055,25.623,5,25.282,5c-1.78,0.011-3.218,1.448-3.229,3.229c0,0.341,0.055,0.691,0.17,1.035l0,0l0.067,0.402
			c0,0.326-0.136,0.632-0.366,0.863c-0.231,0.23-0.537,0.366-0.863,0.366l-0.403-0.067l0,0c-0.343-0.114-0.693-0.17-1.034-0.17
			c-1.78,0.011-3.218,1.448-3.229,3.229c0,0.341,0.055,0.691,0.17,1.034l0,0h0l0.067,0.402c0,0.326-0.136,0.632-0.366,0.863
			c-0.231,0.23-0.537,0.366-0.863,0.366l-0.403-0.067l0,0c-0.343-0.114-0.693-0.17-1.034-0.17c-1.78,0.011-3.218,1.448-3.229,3.229
			c0,0.341,0.055,0.691,0.17,1.035l0.067,0.402c0,0.326-0.136,0.632-0.366,0.863c-0.231,0.23-0.537,0.366-0.863,0.366L9.345,22.14h0
			c-0.343-0.114-0.693-0.17-1.034-0.17c-1.78,0.011-3.218,1.448-3.229,3.229c0,0.341,0.055,0.691,0.17,1.035
			C5.389,26.643,5.769,26.918,6.201,26.918z"/>
	</g>
</g>
<g id="Layer_1">
</g>
</svg>
