<?xml version="1.0" encoding="iso-8859-1"?>
<!-- Generator: Adobe Illustrator 19.2.1, SVG Export Plug-In . SVG Version: 6.00 Build 0)  -->
<svg version="1.1" xmlns="http://www.w3.org/2000/svg" xmlns:xlink="http://www.w3.org/1999/xlink" x="0px" y="0px"
	 viewBox="0 0 31.946 31.946" style="enable-background:new 0 0 31.946 31.946;" xml:space="preserve">
<g id="Layer_10">
	<g>
		<path style="fill:#E67373;" d="M7.997,31.946c2.045,0.001,4.099-0.781,5.657-2.34l15.953-15.953
			c1.559-1.558,2.341-3.613,2.34-5.657c0.001-2.044-0.781-4.099-2.34-5.657C28.049,0.781,25.994-0.001,23.95,0
			c-2.045-0.001-4.099,0.781-5.657,2.34L2.34,18.293C0.781,19.851-0.001,21.905,0,23.95c-0.001,2.044,0.781,4.099,2.34,5.657
			l0.707-0.707L2.34,29.607C3.898,31.165,5.952,31.947,7.997,31.946z M2,23.95c0.001-1.541,0.583-3.072,1.754-4.243L19.707,3.754
			C20.878,2.583,22.409,2.001,23.95,2c1.541,0.001,3.072,0.584,4.243,1.754c1.17,1.171,1.753,2.702,1.754,4.243
			c-0.001,1.541-0.583,3.072-1.754,4.243L12.239,28.192c-1.171,1.17-2.702,1.753-4.243,1.754c-1.541-0.001-3.072-0.584-4.243-1.754
			C2.584,27.021,2.001,25.49,2,23.95z"/>
		<path style="fill:#E67373;" d="M7,21.946h8c0.552,0,1-0.448,1-1c0-0.552-0.448-1-1-1H7c-0.552,0-1,0.448-1,1
			C6,21.498,6.448,21.946,7,21.946z"/>
		<path style="fill:#E67373;" d="M13,15.946h8c0.552,0,1-0.448,1-1c0-0.552-0.448-1-1-1h-8c-0.552,0-1,0.448-1,1
			C12,15.498,12.448,15.946,13,15.946z"/>
		<path style="fill:#E67373;" d="M19,9.946h8c0.552,0,1-0.448,1-1c0-0.552-0.448-1-1-1h-8c-0.552,0-1,0.448-1,1
			C18,9.498,18.448,9.946,19,9.946z"/>
	</g>
</g>
<g id="Layer_1">
</g>
</svg>
