<?xml version="1.0" encoding="iso-8859-1"?>
<!-- Generator: Adobe Illustrator 19.2.1, SVG Export Plug-In . SVG Version: 6.00 Build 0)  -->
<svg version="1.1" xmlns="http://www.w3.org/2000/svg" xmlns:xlink="http://www.w3.org/1999/xlink" x="0px" y="0px"
	 viewBox="0 0 32.185 32.185" style="enable-background:new 0 0 32.185 32.185;" xml:space="preserve">
<g id="Layer_2">
	<g>
		<path style="fill:#E67373;" d="M29.256,2.929c-1.95-1.951-4.515-2.93-7.071-2.929c-2.556-0.001-5.121,0.978-7.071,2.929
			L4.507,13.535c-0.584,0.583-0.88,1.357-0.879,2.121c-0.001,0.764,0.295,1.538,0.879,2.121l2.121,2.121l-5.75,5.75v0
			C0.295,26.232-0.001,27.006,0,27.771c-0.001,0.764,0.295,1.538,0.879,2.121l1.414,1.414c0.583,0.584,1.357,0.88,2.121,0.879
			c0.764,0.001,1.538-0.295,2.121-0.879l5.75-5.75l2.121,2.121c0.583,0.584,1.357,0.88,2.121,0.879
			c0.764,0.001,1.538-0.295,2.121-0.879l10.607-10.607c1.951-1.95,2.93-4.515,2.929-7.071C32.186,7.444,31.207,4.879,29.256,2.929
			L29.256,2.929z M5.121,29.892c-0.198,0.197-0.448,0.292-0.707,0.293c-0.259-0.001-0.509-0.096-0.707-0.293l-1.414-1.414
			C2.096,28.28,2.001,28.03,2,27.771c0.001-0.259,0.096-0.509,0.293-0.707l-0.707-0.707l0.707,0.707l5.75-5.75l2.828,2.828
			L5.121,29.892z M27.842,15.657L17.235,26.263c-0.198,0.197-0.448,0.292-0.707,0.293c-0.259-0.001-0.509-0.096-0.707-0.293
			l-2.828-2.828L8.75,19.192l-2.828-2.828c-0.197-0.198-0.292-0.448-0.293-0.707c0.001-0.259,0.096-0.509,0.293-0.707l-0.707-0.707
			l0.707,0.707L16.528,4.343C18.093,2.779,20.134,2.001,22.185,2c2.051,0.001,4.092,0.779,5.657,2.343
			c1.564,1.565,2.342,3.606,2.343,5.657C30.184,12.051,29.406,14.092,27.842,15.657z"/>
		<path style="fill:#E67373;" d="M24.478,10.293l-8,8c-0.39,0.39-0.39,1.024,0,1.414c0.39,0.391,1.024,0.391,1.414,0l8-8
			c0.391-0.391,0.391-1.024,0-1.414C25.501,9.902,24.868,9.902,24.478,10.293z"/>
		<path style="fill:#E67373;" d="M21.892,6.293c-0.39-0.391-1.024-0.391-1.414,0l-8,8c-0.391,0.391-0.391,1.024,0,1.414
			c0.391,0.391,1.024,0.391,1.414,0l8-8C22.283,7.317,22.283,6.683,21.892,6.293z"/>
	</g>
</g>
<g id="Layer_1">
</g>
</svg>
