<?xml version="1.0" encoding="iso-8859-1"?>
<!-- Generator: Adobe Illustrator 19.2.1, SVG Export Plug-In . SVG Version: 6.00 Build 0)  -->
<svg version="1.1" xmlns="http://www.w3.org/2000/svg" xmlns:xlink="http://www.w3.org/1999/xlink" x="0px" y="0px"
	 viewBox="0 0 22 32" style="enable-background:new 0 0 22 32;" xml:space="preserve">
<g id="Layer_27">
	<path style="fill:#E67373;" d="M2.488,15.306l3.188,14.345C5.981,31.024,7.198,32,8.604,32h4.791c1.406,0,2.623-0.976,2.929-2.349
		l3.188-14.345C20.997,14.44,21.999,12.833,22,11c0-1.754-0.92-3.278-2.284-4.157C18.759,2.905,15.225,0.001,11,0
		C6.775,0.001,3.241,2.905,2.283,6.843C0.92,7.722,0,9.246,0,11C0.002,12.833,1.003,14.44,2.488,15.306z M14.372,29.217
		C14.27,29.674,13.864,30,13.396,30H8.604c-0.469,0-0.875-0.326-0.976-0.783L6.913,26h8.173L14.372,29.217z M15.531,24H6.469
		L5.58,20h10.84L15.531,24z M16.865,18H5.135l-0.449-2.02C4.791,15.986,4.894,16,5,16c1.133,0.001,2.169-0.387,3-1.019
		c0.831,0.632,1.867,1.02,3,1.019c1.133,0.001,2.169-0.387,3-1.019c0.831,0.632,1.867,1.02,3,1.019c0.106,0,0.209-0.014,0.313-0.02
		L16.865,18z M3.618,8.369c0.273-0.141,0.467-0.401,0.524-0.703C4.755,4.432,7.586,1.999,11,2c3.414-0.001,6.245,2.433,6.857,5.666
		c0.057,0.302,0.251,0.562,0.524,0.703C19.347,8.87,20,9.85,20,11c0.001,1.12-0.63,2.112-1.561,2.623l-0.015,0.008
		C18.017,13.864,17.528,14,17,14c-0.894-0.001-1.678-0.396-2.25-1.041c-0.189-0.215-0.465-0.339-0.75-0.339s-0.561,0.124-0.75,0.339
		C12.678,13.604,11.894,13.999,11,14c-0.894-0.001-1.678-0.396-2.25-1.041C8.561,12.744,8.286,12.62,8,12.62
		s-0.562,0.124-0.75,0.339C6.678,13.604,5.894,13.999,5,14c-0.528,0-1.017-0.136-1.424-0.368l-0.015-0.008
		C2.63,13.112,1.998,12.12,2,11C2,9.85,2.653,8.87,3.618,8.369z"/>
</g>
<g id="Layer_1">
</g>
</svg>
