<?xml version="1.0" encoding="iso-8859-1"?>
<!-- Generator: Adobe Illustrator 19.2.1, SVG Export Plug-In . SVG Version: 6.00 Build 0)  -->
<svg version="1.1" xmlns="http://www.w3.org/2000/svg" xmlns:xlink="http://www.w3.org/1999/xlink" x="0px" y="0px"
	 viewBox="0 0 32 32" style="enable-background:new 0 0 32 32;" xml:space="preserve">
<g id="Layer_13">
	<path style="fill:#E67373;" d="M1.707,7.707L4,5.414L5.586,7L4,8.586C3.611,8.974,3.413,9.492,3.414,10
		C3.413,10.509,3.611,11.026,4,11.414L6.586,14C6.974,14.389,7.492,14.587,8,14.586C8.509,14.587,9.026,14.389,9.414,14L11,12.414
		l1.151,1.151L12.586,14l-2.293,2.293c-0.391,0.391-0.391,1.024,0,1.414c0.391,0.39,1.024,0.39,1.414,0L14,15.414L15.586,17
		L14,18.586c-0.389,0.388-0.587,0.906-0.586,1.414c-0.001,0.509,0.197,1.026,0.586,1.414L16.586,24
		c0.388,0.389,0.906,0.587,1.414,0.586c0.508,0.001,1.026-0.197,1.414-0.586L21,22.414l1.829,1.829
		C22.277,25.076,21.999,26.041,22,27c-0.001,1.276,0.49,2.562,1.464,3.536C24.438,31.51,25.724,32.001,27,32
		c1.276,0.001,2.562-0.49,3.535-1.464C31.51,29.562,32.001,28.276,32,27c0.001-1.276-0.49-2.562-1.464-3.535
		c-0.391-0.391-1.024-0.391-1.414,0c-0.391,0.391-0.39,1.024,0,1.414C29.709,25.467,29.999,26.229,30,27
		c-0.001,0.771-0.291,1.533-0.879,2.121C28.533,29.709,27.771,29.999,27,30c-0.771-0.001-1.533-0.291-2.121-0.879
		C24.291,28.533,24.001,27.771,24,27c0.001-0.771,0.291-1.533,0.879-2.121c0.186-0.186,0.293-0.444,0.293-0.707
		c0-0.263-0.107-0.521-0.293-0.707L22.414,21L24,19.414c0.389-0.388,0.587-0.906,0.586-1.414c0.001-0.508-0.197-1.026-0.586-1.414
		L21.414,14c-0.388-0.389-0.906-0.587-1.414-0.586c-0.508-0.001-1.026,0.197-1.414,0.586l0,0L17,15.586L15.414,14l2.293-2.293
		c0.39-0.391,0.39-1.024,0-1.414c-0.39-0.391-1.024-0.391-1.414,0L14,12.586l-0.435-0.435L12.414,11L14,9.414
		C14.389,9.026,14.587,8.509,14.586,8C14.587,7.492,14.389,6.974,14,6.586L11.414,4C11.026,3.611,10.508,3.413,10,3.414
		C9.492,3.413,8.974,3.611,8.586,4l0,0L7,5.586L5.414,4l2.293-2.293c0.39-0.391,0.39-1.024,0-1.414
		c-0.391-0.391-1.024-0.391-1.414,0L4,2.586L1.751,0.337c-0.39-0.391-1.024-0.391-1.414,0c-0.391,0.39-0.391,1.024,0,1.414L2.586,4
		L0.293,6.293c-0.391,0.391-0.391,1.024,0,1.414C0.683,8.098,1.317,8.098,1.707,7.707z M20,15.414L20,15.414L20,15.414l-0.707-0.707
		L20,15.414z M20,15.414L22.586,18l0,0L18,22.586L15.414,20L20,15.414z M10,5.414L10,5.414L10,5.414L9.293,4.707L10,5.414z
		 M10,5.414L12.586,8l0,0L8,12.586L5.414,10L10,5.414z"/>
</g>
<g id="Layer_1">
</g>
</svg>
