<?xml version="1.0" encoding="iso-8859-1"?>
<!-- Generator: Adobe Illustrator 19.2.1, SVG Export Plug-In . SVG Version: 6.00 Build 0)  -->
<svg version="1.1" xmlns="http://www.w3.org/2000/svg" xmlns:xlink="http://www.w3.org/1999/xlink" x="0px" y="0px"
	 viewBox="0 0 32 30.534" style="enable-background:new 0 0 32 30.534;" xml:space="preserve">
<g id="Layer_34">
	<path style="fill:#E67373;" d="M28.827,0.293L26,3.12l-2.827-2.827c-0.391-0.391-1.024-0.391-1.414,0
		C20.675,1.376,20,2.881,20,4.534c0.001,2.529,1.572,4.69,3.788,5.572c-0.351,1.29-1.024,2.406-2.062,3.197L18,5.639V5.638
		c-1-0.676-1.242-1.105-2-1.104c-0.758,0-2,0.429-2,1.104v0.001l-3.726,7.663c-1.038-0.791-1.764-1.907-2.115-3.197
		c2.216-0.882,3.813-3.043,3.815-5.572c0-1.653-0.662-3.158-1.746-4.241c-0.391-0.391-1.017-0.391-1.408,0L5.997,3.12L3.172,0.293
		c-0.391-0.391-1.023-0.391-1.413,0C0.674,1.376,0,2.881,0,4.534c0.002,3.311,2.689,5.998,6,6c0.085,0,0.169-0.009,0.253-0.013
		c0.563,2.193,2.036,4.009,3.986,5.055l3.826,11.478l-1.773,1.773c-0.391,0.39-0.391,1.024,0,1.414c0.391,0.391,1.024,0.391,1.414,0
		v0l1.787-1.788c0.164,0.043,0.33,0.08,0.505,0.08c0.175,0,0.342-0.037,0.505-0.08l1.787,1.788c0.39,0.391,1.024,0.391,1.414,0
		c0.391-0.39,0.391-1.024,0-1.414l-1.773-1.773l3.826-11.478c1.95-1.046,3.423-2.862,3.986-5.055
		c0.085,0.004,0.168,0.013,0.253,0.013c3.311-0.002,5.998-2.689,6-6c0-1.653-0.675-3.158-1.759-4.241
		C29.851-0.098,29.218-0.098,28.827,0.293z M6,8.534c-2.203-0.004-3.996-1.797-4-4c0-0.741,0.215-1.424,0.567-2.019l2.726,2.726
		C5.48,5.427,5.737,5.534,6,5.534c0.263,0,0.521-0.107,0.707-0.293l2.726-2.726C9.785,3.11,10,3.793,10,4.534
		C9.996,6.736,8.203,8.53,6,8.534z M16.313,25.595c-0.204-0.067-0.422-0.067-0.625,0l-1.02-3.061h2.666L16.313,25.595z M18,20.534
		h-3.999l-0.667-2h5.333L18,20.534z M20,14.533v0.001l-0.667,1.999h-6.666l-0.667-2l0,0h0.132l3.999-8L20,14.416V14.533z M26,8.534
		c-2.203-0.004-3.996-1.797-4-4c0-0.741,0.215-1.424,0.567-2.019l2.726,2.726C25.479,5.427,25.737,5.534,26,5.534
		c0.263,0,0.521-0.107,0.707-0.293l2.726-2.726C29.785,3.11,30,3.793,30,4.534C29.996,6.736,28.203,8.53,26,8.534z"/>
</g>
<g id="Layer_1">
</g>
</svg>
