<?xml version="1.0" encoding="iso-8859-1"?>
<!-- Generator: Adobe Illustrator 19.2.1, SVG Export Plug-In . SVG Version: 6.00 Build 0)  -->
<svg version="1.1" xmlns="http://www.w3.org/2000/svg" xmlns:xlink="http://www.w3.org/1999/xlink" x="0px" y="0px"
	 viewBox="0 0 32 32" style="enable-background:new 0 0 32 32;" xml:space="preserve">
<g id="Layer_21">
	<path style="fill:#E67373;" d="M3,32c0.764,0.001,1.538-0.295,2.121-0.879l8.795-8.795C15.702,23.382,17.778,23.999,20,24
		c6.62-0.002,11.998-5.38,12-12C31.998,5.38,26.62,0.002,20,0C13.38,0.002,8.002,5.38,8,12c0.001,2.222,0.618,4.297,1.674,6.084
		l-8.795,8.795C0.295,27.462-0.001,28.235,0,29c-0.001,0.764,0.295,1.538,0.879,2.121C1.462,31.705,2.235,32.001,3,32z
		 M20.412,16.888c1.962-0.001,3.551-1.59,3.551-3.551c-0.001-2.314-1.875-4.189-4.189-4.189c-2.754,0.001-4.986,2.232-4.986,4.986
		c0.001,3.305,2.678,5.982,5.983,5.983c3.993-0.001,7.228-3.236,7.229-7.229c-0.001-4.853-3.933-8.785-8.786-8.786
		c-3.461,0-6.53,1.645-8.493,4.188c0.508-1.265,1.261-2.407,2.211-3.358C14.747,3.12,17.241,2,20,2c2.759,0,5.253,1.12,7.067,2.933
		C28.88,6.747,30,9.241,30,12c0,2.759-1.12,5.253-2.933,7.067C25.253,20.88,22.759,22,20,22c-2.102,0-4.049-0.654-5.66-1.765
		c0,0,0-0.001,0-0.001c-1.007-0.694-1.879-1.567-2.573-2.573c0,0-0.001,0-0.001-0.001c-0.545-0.791-0.979-1.662-1.28-2.593
		l-0.004-0.235c0.001-2.414,0.976-4.59,2.557-6.172c1.583-1.582,3.76-2.557,6.175-2.558c3.747,0.007,6.779,3.039,6.786,6.786
		c-0.005,2.887-2.341,5.224-5.229,5.229c-2.199-0.004-3.979-1.784-3.983-3.983c0.003-1.649,1.337-2.983,2.986-2.986
		c1.209,0.002,2.187,0.981,2.189,2.189c-0.002,0.856-0.695,1.55-1.551,1.551c-0.552,0-1,0.448-1,1
		C19.412,16.44,19.86,16.888,20.412,16.888z M2.293,28.293l8.552-8.552c0.432,0.51,0.904,0.982,1.414,1.414l-8.552,8.552
		C3.509,29.904,3.259,29.999,3,30c-0.259-0.001-0.509-0.096-0.707-0.293C2.096,29.509,2.001,29.259,2,29
		C2.001,28.741,2.096,28.491,2.293,28.293z"/>
</g>
<g id="Layer_1">
</g>
</svg>
