<?xml version="1.0" encoding="iso-8859-1"?>
<!-- Generator: Adobe Illustrator 19.2.1, SVG Export Plug-In . SVG Version: 6.00 Build 0)  -->
<svg version="1.1" xmlns="http://www.w3.org/2000/svg" xmlns:xlink="http://www.w3.org/1999/xlink" x="0px" y="0px"
	 viewBox="0 0 32 29.992" style="enable-background:new 0 0 32 29.992;" xml:space="preserve">
<g id="Layer_43">
	<path style="fill:#E67373;" d="M31,1.992h-4c-0.263,0-0.521,0.107-0.707,0.293l-3.707,3.707H12c-0.001-3-2.687-5.987-6-5.988
		C2.687,0.005,0.001,2.697,0,6.01c0.001,3.313,2.687,6.002,6,6.003c0.765,0,1.502-0.145,2.178-0.407L16,19.43v8.562h-5
		c-0.552,0-1,0.448-1,1c0,0.552,0.448,1,1,1h12c0.552,0,1-0.448,1-1c0-0.552-0.448-1-1-1h-5V19.43L29.707,7.723
		c0.286-0.286,0.372-0.728,0.217-1.102C29.769,6.248,29.404,5.992,29,5.992h-3.586l2-2H31c0.552,0,1-0.448,1-1
		C32,2.44,31.552,1.992,31,1.992z M6,10.016c-2.207-0.004-3.996-1.793-4-4c0.004-2.207,1.793-4.008,4-4.012
		c2.207,0.004,3.996,1.988,4,3.988H5c-0.404,0-0.768,0.254-0.923,0.628C3.921,6.993,4.006,7.428,4.291,7.715l2.245,2.261
		C6.36,9.999,6.181,10.016,6,10.016z M26.586,7.992L17,17.59L9.107,9.703C9.09,9.686,9.066,9.67,9.048,9.654L7.404,7.992H10.9h9.686
		l-4.293,4.305c-0.391,0.391-0.744,1.03-0.354,1.42S17,14.111,17,13.721v-0.007l6.414-5.722H26.586z"/>
</g>
<g id="Layer_1">
</g>
</svg>
