<?xml version="1.0" encoding="iso-8859-1"?>
<!-- Generator: Adobe Illustrator 19.2.1, SVG Export Plug-In . SVG Version: 6.00 Build 0)  -->
<svg version="1.1" xmlns="http://www.w3.org/2000/svg" xmlns:xlink="http://www.w3.org/1999/xlink" x="0px" y="0px"
	 viewBox="0 0 28 32" style="enable-background:new 0 0 28 32;" xml:space="preserve">
<g id="Layer_49">
	<g>
		<path style="fill:#E67373;" d="M24,6.602V3.016C24,1.359,22.657,0,21,0H7C5.343,0,4,1.359,4,3.016v3.586l-3.707,3.707
			C0.107,10.495,0,10.752,0,11.016v20c0,0.263,0.107,0.513,0.293,0.699C0.479,31.901,0.737,32,1,32h17.999c0,0,0,0,0,0h8
			c0.263,0,0.521-0.099,0.707-0.285C27.893,31.529,28,31.279,28,31.016v-20c0-0.263-0.107-0.521-0.293-0.707L24,6.602z M6,3.016
			C6,2.464,6.448,2,7,2h14c0.552,0,1,0.464,1,1.016V6H6V3.016z M18,30H2V12h16V30z M18.586,10H3.414l2-2h15.172L18.586,10z M26,30
			h-6V11.43l3-3l3,3V30z"/>
		<path style="fill:#E67373;" d="M10,26.016c2.208-0.002,3.998-1.792,4-4c-0.004-0.596-0.196-1.115-0.441-1.604
			c-0.743-1.438-2.118-2.784-2.819-3.566c-0.19-0.209-0.457-0.326-0.739-0.326s-0.549,0.118-0.739,0.326
			c-0.464,0.511-1.239,1.303-1.914,2.176c-0.339,0.44-0.656,0.901-0.905,1.389C6.196,20.901,6.004,21.42,6,22.016
			C6.002,24.224,7.792,26.014,10,26.016z M8.224,21.318c0.352-0.709,1.102-1.585,1.775-2.324c0.359,0.392,0.737,0.818,1.071,1.251
			c0.291,0.375,0.542,0.75,0.705,1.072c0.167,0.321,0.229,0.586,0.224,0.698c-0.002,1.1-0.9,1.998-2,2c-1.1-0.002-1.998-0.9-2-2
			C7.996,21.903,8.058,21.639,8.224,21.318z"/>
	</g>
</g>
<g id="Layer_1">
</g>
</svg>
