<?xml version="1.0" encoding="iso-8859-1"?>
<!-- Generator: Adobe Illustrator 19.2.1, SVG Export Plug-In . SVG Version: 6.00 Build 0)  -->
<svg version="1.1" xmlns="http://www.w3.org/2000/svg" xmlns:xlink="http://www.w3.org/1999/xlink" x="0px" y="0px"
	 viewBox="0 0 32 22" style="enable-background:new 0 0 32 22;" xml:space="preserve">
<g id="Layer_20">
	<path style="fill:#E67373;" d="M25,0L25,0h-6h-6H9H9H7C3.143,0.004,0.004,3.143,0,7c0.001,0.711,0.155,1.385,0.424,1.997
		c0.012,0.032,0.034,0.059,0.049,0.09c0.436,0.94,1.156,1.711,2.048,2.226C2.194,11.795,2,12.374,2,13v4c0,2.757,2.243,5,5,5h6h6h6
		c2.757,0,5-2.243,5-5v-4c0-0.626-0.194-1.205-0.522-1.686C30.976,10.45,31.997,8.851,32,7C31.996,3.143,28.857,0.004,25,0z
		 M3.47,3.47c0.806-0.805,1.882-1.311,3.069-1.423L2.047,6.539C2.158,5.351,2.665,4.276,3.47,3.47z M12,20H7c-1.643,0-3-1.357-3-3
		v-4c0-0.543,0.588-0.999,1.131-1H12V20z M12,10H9.414L12,7.414V10z M12,4.586L6.586,10H5C4.03,9.998,3.17,9.519,2.62,8.795L9.414,2
		H12V4.586z M18,11v9h-4v-9V2h4V11z M20,2h2.586L20,4.586V2z M20,7.414l5.376-5.376c1.222,0.094,2.329,0.607,3.154,1.431
		c0.098,0.098,0.175,0.215,0.265,0.321L22.586,10H20V7.414z M28,17c0,1.643-1.357,2.997-3,3h-5v-8h7c0.543,0.001,1,0.457,1,1V17z
		 M27,10h-1.586l4.37-4.37C29.91,6.069,30,6.522,30,7C29.997,8.643,28.643,9.997,27,10z"/>
</g>
<g id="Layer_1">
</g>
</svg>
