<?xml version="1.0" encoding="iso-8859-1"?>
<!-- Generator: Adobe Illustrator 19.2.1, SVG Export Plug-In . SVG Version: 6.00 Build 0)  -->
<svg version="1.1" xmlns="http://www.w3.org/2000/svg" xmlns:xlink="http://www.w3.org/1999/xlink" x="0px" y="0px"
	 viewBox="0 0 31.216 32" style="enable-background:new 0 0 31.216 32;" xml:space="preserve">
<g id="Layer_24">
	<g>
		<path style="fill:#E67373;" d="M31.216,13.058c0-0.406-0.052-0.821-0.161-1.234c-0.429-1.609-1.114-3.104-1.985-4.464
			c-1.878-2.923-4.671-5.183-7.977-6.399L21.089,0.96C19.382,0.341,17.527,0,15.608,0c-1.727,0-3.411,0.277-4.989,0.789
			l-0.008,0.002c-0.512,0.171-1,0.362-1.483,0.572L9.121,1.367C7.164,2.239,5.399,3.493,3.947,5.048l0,0
			C3.945,5.049,3.944,5.051,3.942,5.053C3.94,5.055,3.938,5.057,3.936,5.058l0,0c-0.523,0.546-0.97,1.122-1.382,1.7
			c-1.089,1.516-1.901,3.227-2.392,5.063C0.052,12.237,0,12.652,0,13.058C0.009,15.746,2.234,18,5.028,18h6.333l-1.73,7.783
			L9.608,26c0.001,3.314,2.686,5.999,6,6c3.314-0.001,5.999-2.686,6-6l-0.024-0.217L19.855,18h6.333
			C28.983,18,31.207,15.746,31.216,13.058z M5.389,6.433L5.4,6.422c1.088-1.168,2.393-2.131,3.826-2.869
			C9.464,3.973,9.607,4.46,9.608,5c-0.003,1.643-1.357,2.997-3,3C5.88,8.002,5.192,7.725,4.666,7.278
			C4.899,6.982,5.136,6.697,5.389,6.433z M15.608,30c-2.183-0.004-3.948-1.752-3.992-3.925L13.41,18h4.396l1.795,8.075
			C19.556,28.248,17.791,29.996,15.608,30z M28.338,15.113C27.787,15.658,27.033,16,26.188,16h-7.58h-6h-7.58
			c-0.845,0-1.599-0.342-2.15-0.887C2.328,14.567,1.999,13.832,2,13.058c0-0.236,0.03-0.477,0.095-0.722
			c0.324-1.21,0.807-2.355,1.434-3.412C4.38,9.592,5.45,9.998,6.608,10c2.757-0.004,4.996-2.243,5-5
			c0.001-0.804-0.206-1.561-0.55-2.24c0.062-0.022,0.12-0.05,0.183-0.071C12.622,2.243,14.097,2,15.608,2
			c1.68,0,3.305,0.299,4.797,0.839c2.893,1.064,5.339,3.044,6.982,5.601c0.768,1.199,1.364,2.504,1.735,3.897
			c0.064,0.243,0.094,0.485,0.094,0.721C29.217,13.832,28.888,14.567,28.338,15.113z"/>
		<path style="fill:#E67373;" d="M19.608,6c-2.209,0.002-3.998,1.792-4,4c0.002,2.208,1.791,3.998,4,4c2.208-0.002,3.998-1.792,4-4
			C23.606,7.792,21.817,6.002,19.608,6z M19.608,12c-1.1-0.002-1.998-0.9-2-2c0.002-1.1,0.9-1.998,2-2c1.1,0.002,1.998,0.9,2,2
			C21.606,11.1,20.708,11.998,19.608,12z"/>
	</g>
</g>
<g id="Layer_1">
</g>
</svg>
