<?xml version="1.0" encoding="iso-8859-1"?>
<!-- Generator: Adobe Illustrator 19.2.1, SVG Export Plug-In . SVG Version: 6.00 Build 0)  -->
<svg version="1.1" xmlns="http://www.w3.org/2000/svg" xmlns:xlink="http://www.w3.org/1999/xlink" x="0px" y="0px"
	 viewBox="0 0 26 32.064" style="enable-background:new 0 0 26 32.064;" xml:space="preserve">
<g id="Layer_55">
	<path style="fill:#E67373;" d="M18.871,7.366C17.127,6.477,16,4.844,16,2.988V2.954c0-1.657-1.343-2.999-3-3
		c-1.657,0.001-3,1.343-3,3v0.033c0,1.857-1.129,3.49-2.875,4.381C2.915,9.5,0,13.858,0,18.898v0.044
		c0,2.798,1.145,5.326,2.956,7.224c1.812,1.9,4.289,3.193,7.016,3.574c0.251,0.035,0.499,0.052,0.749,0.079l-0.428,0.429
		c-0.391,0.39-0.391,1.225,0,1.616c0.39,0.39,1.028,0.201,1.418,0.201h-0.002l1.292-1.494l1.292,1.192
		c0.391,0.39,1.023,0.34,1.414-0.05c0.391-0.391,0.39-1.049,0-1.439l-0.433-0.445c2.593-0.308,4.954-1.156,6.821-2.589
		c2.405-1.835,3.918-4.695,3.905-8.28C25.999,13.892,23.099,9.505,18.871,7.366z M20.875,25.647
		c-0.833,0.643-1.828,1.151-2.933,1.53c0.045-0.066,0.096-0.125,0.139-0.193c1.229-1.899,1.916-4.583,1.919-8.03
		c0-0.552-0.448-1-1-1c-0.552,0-1,0.448-1,1c0.003,3.181-0.653,5.497-1.596,6.94C15.7,26.957,15,27.561,14,27.812v-6.858
		c0-0.552-0.448-1-1-1c-0.552,0-1,0.448-1,1v6.869c0-0.014-0.117-0.021-0.177-0.037c-0.824-0.211-1.833-1.153-2.581-2.74
		C8.491,23.472,8,21.327,8,18.941v-0.035c0-0.552-0.443-0.919-0.995-0.921c-0.552-0.002-0.805,0.079-0.807,1.079H6v-0.123
		c0,2.658,0.536,5.069,1.437,6.964c0.229,0.476,0.481,0.922,0.757,1.333c-1.455-0.529-2.763-1.374-3.79-2.453
		C2.91,23.214,2,21.187,2,18.941v-0.035c0-4.265,2.464-7.946,6.029-9.754C10.349,7.982,12,5.689,12,2.987V2.954
		c0-0.552,0.448-0.999,1-1c0.552,0.001,1,0.448,1,1v0.033c0,2.7,1.648,4.994,3.968,6.163c3.58,1.815,6.033,5.517,6.032,9.804
		C23.987,21.996,22.813,24.139,20.875,25.647z"/>
</g>
<g id="Layer_1">
</g>
</svg>
