<?xml version="1.0" encoding="iso-8859-1"?>
<!-- Generator: Adobe Illustrator 19.2.1, SVG Export Plug-In . SVG Version: 6.00 Build 0)  -->
<svg version="1.1" xmlns="http://www.w3.org/2000/svg" xmlns:xlink="http://www.w3.org/1999/xlink" x="0px" y="0px"
	 viewBox="0 0 32 31.754" style="enable-background:new 0 0 32 31.754;" xml:space="preserve">
<g id="Layer_8">
	<g>
		<path style="fill:#E67373;" d="M3.001,11.293c0.411,0.001,0.823-0.428,1.21-0.599l9.045,19.06h0.002
			c0.513,1,1.655,1.801,2.743,1.79c1.088,0.011,2.23-0.79,2.743-1.79h0.002l9.045-19.061c0.387,0.171,0.798,0.433,1.209,0.433
			c0.805,0.001,1.616-0.244,2.205-0.881C31.735,9.67,32.001,8.976,32,8.251c0.001-0.804-0.326-1.595-0.965-2.184
			C26.816,2.173,21.404,0.238,16,0.239C10.597,0.238,5.184,2.189,0.965,6.083C0.326,6.672-0.001,7.486,0,8.291
			c-0.001,0.725,0.265,1.461,0.795,2.035C1.384,10.965,2.196,11.294,3.001,11.293z M19.472,24.129
			c-0.844-0.235-1.47-1.003-1.472-1.919c0.002-1.1,0.9-1.998,2-2c0.423,0,0.807,0.139,1.13,0.364L19.472,24.129z M21.978,18.756
			c-0.586-0.337-1.255-0.547-1.978-0.547c-2.209,0.002-3.998,1.792-4,4c0.001,1.722,1.096,3.177,2.623,3.74l-1.691,3.625
			l-0.013,0.029c-0.186,0.422-0.524,0.595-0.919,0.606c-0.395-0.011-0.733-0.184-0.919-0.606l-0.013-0.029L5.852,9.813
			C8.79,7.443,12.387,6.242,16,6.242c3.613,0.001,7.209,1.201,10.149,3.572L21.978,18.756z M2.322,7.558
			C6.154,4.02,11.073,2.25,16,2.249c4.927,0.001,9.846,1.771,13.678,5.309C29.894,7.757,29.999,8.02,30,8.293
			c-0.001,0.246-0.086,0.483-0.265,0.678c-0.199,0.215-0.463,0.32-0.736,0.321c-0.244-0.001-0.482-0.086-0.678-0.266
			c-0.06-0.055-0.125-0.101-0.186-0.156c-0.021-0.024-0.05-0.04-0.074-0.062C24.642,5.771,20.32,4.241,16,4.242
			C11.68,4.241,7.359,5.771,3.939,8.809C3.916,8.831,3.886,8.847,3.865,8.871C3.804,8.926,3.738,8.972,3.678,9.027
			c-0.196,0.18-0.432,0.265-0.677,0.266C2.728,9.292,2.465,9.187,2.265,8.971C2.086,8.776,2.001,8.539,2,8.293
			C2.001,8.02,2.106,7.757,2.322,7.558z"/>
		<path style="fill:#E67373;" d="M10,12.21c0.002,2.208,1.791,3.998,4,4c2.208-0.002,3.998-1.792,4-4c-0.002-2.208-1.791-3.998-4-4
			C11.792,8.211,10.002,10.001,10,12.21z M16,12.21c-0.002,1.1-0.9,1.998-2,2c-1.1-0.002-1.998-0.9-2-2c0.002-1.1,0.9-1.998,2-2
			C15.1,10.212,15.998,11.109,16,12.21z"/>
	</g>
</g>
<g id="Layer_1">
</g>
</svg>
