<?xml version="1.0" encoding="iso-8859-1"?>
<!-- Generator: Adobe Illustrator 19.2.1, SVG Export Plug-In . SVG Version: 6.00 Build 0)  -->
<svg version="1.1" xmlns="http://www.w3.org/2000/svg" xmlns:xlink="http://www.w3.org/1999/xlink" x="0px" y="0px"
	 viewBox="0 0 20 31.99" style="enable-background:new 0 0 20 31.99;" xml:space="preserve">
<g id="Layer_45">
	<g>
		<path style="fill:#E67373;" d="M0,9.016v18c0,2.762,2.238,4.974,5,4.974h10c2.762,0,5-2.213,5-4.974v-18
			c0-0.263-0.107-0.534-0.293-0.72L17.414,5.99H18c0.552,0,1-0.448,1-1c0-0.552-0.448-1-1-1h-3H9.414L5.707,0.296
			C5.316-0.095,4.683-0.088,4.293,0.302c-0.391,0.391-0.391,1.014,0,1.405L6.586,3.99H5H2c-0.552,0-1,0.448-1,1c0,0.552,0.448,1,1,1
			h0.586L0.293,8.296C0.107,8.482,0,8.752,0,9.016z M2,9.43l3.414-3.44h9.172L18,9.43v17.586c0,1.656-1.344,2.974-3,2.974H5
			c-1.657,0-3-1.318-3-2.974V9.43z"/>
		<path style="fill:#E67373;" d="M7,19.99h4.131l-2.964,4.458c-0.306,0.46-0.182,1.087,0.277,1.393
			c0.459,0.306,1.08,0.185,1.387-0.274l4-5.998c0.205-0.308,0.224-0.712,0.05-1.039c-0.175-0.326-0.512-0.54-0.882-0.54H8.868
			l2.964-4.432c0.306-0.46,0.098-1.074-0.361-1.38C11.011,11.871,10,11.998,10,12.458v0.002L6.084,18.46
			c-0.205,0.308-0.182,0.688-0.008,1.014C6.251,19.801,6.63,19.99,7,19.99z"/>
	</g>
</g>
<g id="Layer_1">
</g>
</svg>
