<?xml version="1.0" encoding="iso-8859-1"?>
<!-- Generator: Adobe Illustrator 19.2.1, SVG Export Plug-In . SVG Version: 6.00 Build 0)  -->
<svg version="1.1" xmlns="http://www.w3.org/2000/svg" xmlns:xlink="http://www.w3.org/1999/xlink" x="0px" y="0px"
	 viewBox="0 0 26.201 32" style="enable-background:new 0 0 26.201 32;" xml:space="preserve">
<g id="Layer_32">
	<path style="fill:#E67373;" d="M12.201,4c-2.21,0.001-3.999,1.791-4,4c0,0.552,0.448,1,1,1c0.552,0,1-0.448,1-1h0
		c0.002-1.104,0.896-1.998,2-2c1.104,0.002,1.998,0.896,2,2c0,0.552,0.448,1,1,1c0.552,0,1-0.448,1-1
		C16.2,5.791,14.41,4.001,12.201,4z"/>
	<path style="fill:#E67373;" d="M24.116,6.157C23.713,3.799,21.674,2,19.201,2c-0.633,0-1.236,0.131-1.796,0.347
		c-0.88-1.4-2.421-2.346-4.204-2.347c-1.784,0.001-3.324,0.947-4.204,2.347C8.437,2.131,7.834,2,7.201,2
		C4.728,2,2.688,3.799,2.286,6.157C1.079,6.546,0.201,7.664,0.201,9c0,0.716,0.261,1.364,0.68,1.88C0.334,11.426,0,12.178,0,12.996
		c0,0.195,0.019,0.394,0.059,0.594l3.2,15.999C3.54,30.991,4.77,32,6.201,32H20c1.43,0,2.661-1.009,2.942-2.412l3.2-16
		c0.04-0.198,0.059-0.397,0.059-0.593c0-0.762-0.297-1.461-0.778-1.996c0.478-0.531,0.778-1.228,0.778-2
		C26.2,7.664,25.322,6.546,24.116,6.157z M6.201,30c-0.477,0-0.887-0.337-0.981-0.804l-3.2-16L2,12.996
		C2.001,12.465,2.438,12,3.001,12h0.2h3.01c0,0-0.009,0.036-0.008,0.055L7.199,30H6.201z M12,30H9.191
		c0-0.019,0.009-0.036,0.008-0.056L8.202,12H12l0,0V30z M17.21,30H14V12h4.199l-0.997,17.944C17.201,29.964,17.21,29.981,17.21,30z
		 M24.181,13.196l-3.2,16C20.887,29.663,20.476,30,20,30h-0.798l0.997-17.945C20.2,12.036,20.191,12,20.191,12H23.2
		c0.563,0,1,0.465,1.001,0.996L24.181,13.196z M23.201,10L23.201,10h-20c-0.552-0.001-0.999-0.448-1-1c0.001-0.552,0.448-0.999,1-1
		c0.263,0,0.521-0.107,0.707-0.293C4.094,7.521,4.201,7.263,4.201,7c0.003-1.657,1.344-2.997,3-3c0.626,0,1.198,0.189,1.679,0.513
		c0.257,0.174,0.58,0.219,0.875,0.121c0.295-0.098,0.527-0.326,0.63-0.619C10.798,2.84,11.896,1.999,13.201,2
		c1.305-0.001,2.403,0.84,2.817,2.016c0.102,0.293,0.335,0.521,0.63,0.619c0.295,0.098,0.617,0.053,0.875-0.121
		C18.003,4.189,18.575,4,19.201,4c1.656,0.003,2.997,1.343,3,3c0,0.263,0.107,0.521,0.293,0.707C22.68,7.893,22.937,8,23.201,8
		c0.552,0.001,0.999,0.448,1,1C24.2,9.552,23.753,9.999,23.201,10z"/>
	<g>
		<path style="fill:#E67373;" d="M12.201,4c-2.21,0.001-3.999,1.791-4,4c0,0.552,0.448,1,1,1c0.552,0,1-0.448,1-1h0
			c0.002-1.104,0.896-1.998,2-2c1.104,0.002,1.998,0.896,2,2c0,0.552,0.448,1,1,1c0.552,0,1-0.448,1-1
			C16.2,5.791,14.41,4.001,12.201,4z"/>
		<path style="fill:#E67373;" d="M24.116,6.157C23.713,3.799,21.674,2,19.201,2c-0.633,0-1.236,0.131-1.796,0.347
			c-0.88-1.4-2.421-2.346-4.204-2.347c-1.784,0.001-3.324,0.947-4.204,2.347C8.437,2.131,7.834,2,7.201,2
			C4.728,2,2.688,3.799,2.286,6.157C1.079,6.546,0.201,7.664,0.201,9c0,0.716,0.261,1.364,0.68,1.88C0.334,11.426,0,12.178,0,12.996
			c0,0.195,0.019,0.394,0.059,0.594l3.2,15.999C3.54,30.991,4.77,32,6.201,32H20c1.43,0,2.661-1.009,2.942-2.412l3.2-16
			c0.04-0.198,0.059-0.397,0.059-0.593c0-0.762-0.297-1.461-0.778-1.996c0.478-0.531,0.778-1.228,0.778-2
			C26.2,7.664,25.322,6.546,24.116,6.157z M6.201,30c-0.477,0-0.887-0.337-0.981-0.804l-3.2-16L2,12.996
			C2.001,12.465,2.438,12,3.001,12h0.2h3.01c0,0-0.009,0.036-0.008,0.055L7.199,30H6.201z M12,30H9.191
			c0-0.019,0.009-0.036,0.008-0.056L8.202,12H12l0,0V30z M17.21,30H14V12h4.199l-0.997,17.944C17.201,29.964,17.21,29.981,17.21,30z
			 M24.181,13.196l-3.2,16C20.887,29.663,20.476,30,20,30h-0.798l0.997-17.945C20.2,12.036,20.191,12,20.191,12H23.2
			c0.563,0,1,0.465,1.001,0.996L24.181,13.196z M23.201,10L23.201,10h-20c-0.552-0.001-0.999-0.448-1-1c0.001-0.552,0.448-0.999,1-1
			c0.263,0,0.521-0.107,0.707-0.293C4.094,7.521,4.201,7.263,4.201,7c0.003-1.657,1.344-2.997,3-3c0.626,0,1.198,0.189,1.679,0.513
			c0.257,0.174,0.58,0.219,0.875,0.121c0.295-0.098,0.527-0.326,0.63-0.619C10.798,2.84,11.896,1.999,13.201,2
			c1.305-0.001,2.403,0.84,2.817,2.016c0.102,0.293,0.335,0.521,0.63,0.619c0.295,0.098,0.617,0.053,0.875-0.121
			C18.003,4.189,18.575,4,19.201,4c1.656,0.003,2.997,1.343,3,3c0,0.263,0.107,0.521,0.293,0.707C22.68,7.893,22.937,8,23.201,8
			c0.552,0.001,0.999,0.448,1,1C24.2,9.552,23.753,9.999,23.201,10z"/>
	</g>
</g>
<g id="Layer_1">
</g>
</svg>
