<?xml version="1.0" encoding="iso-8859-1"?>
<!-- Generator: Adobe Illustrator 19.2.1, SVG Export Plug-In . SVG Version: 6.00 Build 0)  -->
<svg version="1.1" xmlns="http://www.w3.org/2000/svg" xmlns:xlink="http://www.w3.org/1999/xlink" x="0px" y="0px"
	 viewBox="0 0 32.233 29.938" style="enable-background:new 0 0 32.233 29.938;" xml:space="preserve">
<g id="Layer_23">
	<path style="fill:#E67373;" d="M22.195,3.589c-1.25-2.198-3.549-3.532-6.078-3.526c-2.529-0.005-4.828,1.329-6.078,3.526
		L0.932,19.527C0.313,20.61,0,21.806,0,23.002c0,1.211,0.321,2.39,0.955,3.481c1.256,2.173,3.544,3.455,6.054,3.455h2.107h14h2.107
		c2.51,0,4.798-1.282,6.054-3.455c0.634-1.091,0.955-2.286,0.955-3.496c0-1.196-0.313-2.384-0.932-3.467L22.195,3.589z M10,27.938
		v-0.523l7.531-7.477h3.586c0.43,0,0.788,0.275,0.93,0.656l-7.344,7.344H10z M10,24.586V21c0-0.552,0.564-1.062,1.116-1.062h3.586
		L10,24.586z M22,27.938h-4.469L22,23.414V27.938z M29.548,25.479c-0.916,1.569-2.508,2.459-4.324,2.459H24v-7h0.248h-0.066
		c-0.001-2-1.409-3-3.066-3h-4h-0.001h-6C9.459,17.938,8,19.343,8,21v6.938H7.009c-1.816,0-3.409-0.89-4.325-2.459
		C2.226,24.687,2,23.845,2,22.986c0-0.848,0.22-1.689,0.668-2.475l9.106-15.935c0.913-1.588,2.509-2.511,4.342-2.517
		c1.833,0.005,3.428,0.932,4.342,2.52l9.106,15.939c0.448,0.785,0.668,1.619,0.668,2.467C30.232,23.844,30.007,24.687,29.548,25.479
		z"/>
</g>
<g id="Layer_1">
</g>
</svg>
