<?xml version="1.0" encoding="iso-8859-1"?>
<!-- Generator: Adobe Illustrator 19.2.1, SVG Export Plug-In . SVG Version: 6.00 Build 0)  -->
<svg version="1.1" xmlns="http://www.w3.org/2000/svg" xmlns:xlink="http://www.w3.org/1999/xlink" x="0px" y="0px"
	 viewBox="0 0 26 32" style="enable-background:new 0 0 26 32;" xml:space="preserve">
<g id="Layer_51">
	<path style="fill:#E67373;" d="M25,12h-3.059C21.44,8,17,4.018,13,4.016v-1C13,2.464,13.448,2,14,2h5c0.552,0,1-0.44,1-0.992
		c0-0.552-1-1.004-1-1.004V0h-5c-1.657,0-3,1.359-3,3.016v1.232C7,5.089,4.485,8,4.059,12H1c-0.552,0-1,0.448-1,1
		c0,0.552,0.448,1,1,1h3.106l1.72,15h0.001c0.159,2,1.445,3,2.983,3h8.38c1.537,0,2.823-1,2.983-3h0.001l1.72-15H25
		c0.552,0,1-0.448,1-1C26,12.448,25.552,12,25,12z M8.053,8.061C8.866,7.248,10,6.647,11,6.31V12H6.08
		C6.3,10,7.007,9.108,8.053,8.061z M6.793,20l-0.674-6H11v6H6.793z M18.186,29.095l-0.001,0.008C18.134,29.614,17.703,30,17.19,30
		H8.81c-0.514,0-0.944-0.382-0.995-0.893l-0.001-0.016L7.017,22h11.965L18.186,29.095z M19.207,20H13v-6h6.881L19.207,20z M13,12
		V6.016c2,0.001,3.676,0.775,4.947,2.045C18.993,9.108,19.7,10,19.92,12H13z"/>
</g>
<g id="Layer_1">
</g>
</svg>
