<?xml version="1.0" encoding="iso-8859-1"?>
<!-- Generator: Adobe Illustrator 19.2.1, SVG Export Plug-In . SVG Version: 6.00 Build 0)  -->
<svg version="1.1" xmlns="http://www.w3.org/2000/svg" xmlns:xlink="http://www.w3.org/1999/xlink" x="0px" y="0px"
	 viewBox="0 0 24 32" style="enable-background:new 0 0 24 32;" xml:space="preserve">
<g id="Layer_52">
	<path style="fill:#E67373;" d="M21,4H10V3.016C10,2.464,10.448,2,11,2h5c0.552,0,1-0.44,1-0.992c0-0.552-1-1.004-1-1.004V0h-5
		C9.343,0,8,1.359,8,3.016V4H3C1.343,4,0.001,5.343,0,7c0.001,1.657,1.343,3,3,3h0.087l1.752,19.272C4.98,30.817,6.274,32,7.826,32
		h8.347c1.552,0,2.847-1.183,2.988-2.728L20.913,10H21c1.657,0,2.999-1.343,3-3C23.999,5.343,22.657,4,21,4z M17.501,25.459
		c-2.062-0.949-3.503-3.024-3.501-5.443c-0.001-2.804,1.925-5.16,4.525-5.817L17.501,25.459z M18.713,12.115
		c-3.808,0.616-6.712,3.917-6.713,7.897c0.002,3.474,2.215,6.427,5.311,7.532l-0.142,1.553C17.123,29.612,16.69,30,16.174,30H7.826
		c-0.517,0-0.95-0.395-0.996-0.91L5.095,10h13.81L18.713,12.115z M21,8h-1H4H3C2.448,8,2.001,7.552,2,7c0.001-0.552,0.448-1,1-1h18
		c0.552,0,0.999,0.448,1,1C21.999,7.552,21.552,8,21,8z"/>
</g>
<g id="Layer_1">
</g>
</svg>
