<?xml version="1.0" encoding="iso-8859-1"?>
<!-- Generator: Adobe Illustrator 19.2.1, SVG Export Plug-In . SVG Version: 6.00 Build 0)  -->
<svg version="1.1" xmlns="http://www.w3.org/2000/svg" xmlns:xlink="http://www.w3.org/1999/xlink" x="0px" y="0px"
	 viewBox="0 0 26 32" style="enable-background:new 0 0 26 32;" xml:space="preserve">
<g id="Layer_1_1_">
	<g>
		<path style="fill:#E67373;" d="M24.928,10.237c-0.846-1.519-2.174-2.501-3.712-3.126c-0.033-0.013-0.058-0.037-0.093-0.046
			c-0.016-0.004-0.031,0.001-0.047-0.003c-0.362-0.141-0.725-0.283-1.107-0.386C18.2,6.195,16.204,6.052,14.1,6.016
			C14.56,3.727,16.576,2.004,19,2c0.552,0,1-0.448,1-1c0-0.552-0.448-1-1-1v0c-3.53,0.001-6.42,2.622-6.901,6.019
			C9.503,6.056,7.089,6.277,5.03,7.056C4.979,7.061,4.929,7.052,4.877,7.065c-0.138,0.037-0.26,0.103-0.365,0.187
			C4.368,7.315,4.206,7.35,4.066,7.42c-1.229,0.62-2.285,1.545-2.994,2.817C0.36,11.508-0.001,13.086,0,15
			c0.007,3.832,1.412,7.983,3.699,11.261c1.147,1.637,2.52,3.057,4.086,4.083C9.349,31.37,11.12,32,13,32
			c1.88,0.001,3.651-0.63,5.214-1.655c2.347-1.542,4.268-3.958,5.629-6.686C25.2,20.927,25.997,17.875,26,15
			C26,13.086,25.64,11.508,24.928,10.237z M19.512,8.632C18.976,9.453,18.054,10.002,17,10c-1.295-0.002-2.387-0.827-2.808-1.976
			C16.2,8.063,18.036,8.219,19.512,8.632z M6.559,8.606c1.464-0.403,3.273-0.55,5.25-0.589C11.391,9.17,10.297,9.998,9,10
			c-1.054,0.002-1.977-0.547-2.512-1.369C6.513,8.623,6.534,8.613,6.559,8.606z M20.662,25.115
			c-1.026,1.467-2.239,2.704-3.544,3.557C15.811,29.526,14.428,29.999,13,30c-1.428-0.001-2.811-0.474-4.119-1.329
			c-1.958-1.278-3.704-3.428-4.934-5.905C2.714,20.293,1.998,17.501,2,15C2,13.33,2.312,12.116,2.817,11.215
			c0.438-0.776,1.054-1.349,1.822-1.801C5.491,10.951,7.117,11.998,9,12c1.644,0,3.089-0.804,4-2.028C13.911,11.196,15.356,12,17,12
			c1.878-0.002,3.499-1.043,4.354-2.574c0.766,0.455,1.388,1.006,1.829,1.788C23.687,12.116,23.999,13.33,24,15
			C24.007,18.335,22.72,22.184,20.662,25.115z"/>
		<ellipse style="fill:#E67373;" cx="13" cy="16" rx="1" ry="2"/>
		<ellipse style="fill:#E67373;" cx="13" cy="24" rx="1" ry="2"/>
		<ellipse style="fill:#E67373;" cx="19" cy="20" rx="1" ry="2"/>
		<ellipse style="fill:#E67373;" cx="7" cy="20" rx="1" ry="2"/>
	</g>
</g>
<g id="Layer_1">
</g>
</svg>
