<?xml version="1.0" encoding="iso-8859-1"?>
<!-- Generator: Adobe Illustrator 19.2.1, SVG Export Plug-In . SVG Version: 6.00 Build 0)  -->
<svg version="1.1" xmlns="http://www.w3.org/2000/svg" xmlns:xlink="http://www.w3.org/1999/xlink" x="0px" y="0px"
	 viewBox="0 0 32.001 32.001" style="enable-background:new 0 0 32.001 32.001;" xml:space="preserve">
<g id="Layer_22">
	<g>
		<path style="fill:#E67373;" d="M22,14c2.208-0.002,3.998-1.792,4-4c-0.002-2.208-1.791-3.998-4-4c-2.209,0.002-3.998,1.792-4,4
			C18.002,12.209,19.792,13.998,22,14z M22,8c1.1,0.002,1.998,0.9,2,2c-0.002,1.1-0.9,1.998-2,2c-1.1-0.002-1.998-0.9-2-2
			C20.002,8.9,20.9,8.002,22,8z"/>
		<path style="fill:#E67373;" d="M17.316,0.052c-0.524-0.175-1.09,0.108-1.265,0.632L9.21,21.21l-8.526,2.842
			c-0.524,0.175-0.807,0.741-0.632,1.265c0.175,0.524,0.741,0.807,1.265,0.632l7.103-2.368l-2.368,7.103
			c-0.175,0.524,0.109,1.09,0.632,1.265c0.524,0.175,1.09-0.109,1.265-0.632l2.842-8.526l20.526-6.842
			c0.524-0.175,0.807-0.741,0.632-1.265c-0.175-0.524-0.741-0.807-1.265-0.632l-2.316,0.772C29.387,13.481,29.999,11.814,30,10
			c-0.002-4.414-3.586-7.998-8-8c-1.813,0.001-3.481,0.613-4.823,1.632l0.772-2.316C18.124,0.793,17.84,0.226,17.316,0.052z
			 M11.581,20.419l2.736-8.209c0.759,2.637,2.836,4.714,5.473,5.473L11.581,20.419z M17.76,5.76C18.85,4.671,20.345,4.001,22,4
			c1.656,0.001,3.15,0.671,4.24,1.76C27.329,6.85,28,8.345,28,10c0,1.656-0.671,3.15-1.76,4.24C25.15,15.329,23.656,16,22,16
			c-1.656,0-3.15-0.671-4.24-1.76C16.671,13.15,16.001,11.656,16,10C16.001,8.345,16.671,6.85,17.76,5.76z"/>
	</g>
</g>
<g id="Layer_1">
</g>
</svg>
