<?xml version="1.0" encoding="iso-8859-1"?>
<!-- Generator: Adobe Illustrator 19.2.1, SVG Export Plug-In . SVG Version: 6.00 Build 0)  -->
<svg version="1.1" xmlns="http://www.w3.org/2000/svg" xmlns:xlink="http://www.w3.org/1999/xlink" x="0px" y="0px"
	 viewBox="0 0 32.061 24" style="enable-background:new 0 0 32.061 24;" xml:space="preserve">
<g id="Layer_31">
	<g>
		<path style="fill:#E67373;" d="M3.771,7.942L3,7.91v0.003c0-0.037,0.014-0.06-0.175-0.06c-0.928-0.001-1.531,0.44-2.068,1.044
			c-0.54,0.608-0.762,1.392-0.765,2.232c-0.005,0.702,0.307,1.451,0.859,2.035c0.006,0.007,0.033,0.016,0.039,0.022
			c0.32,0.33,0.494,1.032,0.485,1.688c0,0.313-0.023,0.603-0.052,0.808l-0.035,0.232c-0.627,1.525-1.037,3.163-1.162,4.89
			l-0.007,0.213C0.125,22.675,1.479,24,3.132,24h25.871c1.653,0,3.006-1.325,3.014-2.983l-0.008-0.212
			c-0.125-1.725-0.536-3.362-1.162-4.886c-0.027-0.146-0.091-0.539-0.09-1.009c-0.009-0.663,0.154-1.387,0.482-1.724
			c0.006-0.006,0.008-0.015,0.013-0.022c0.551-0.584,0.813-1.333,0.809-2.035c-0.003-0.839-0.326-1.624-0.865-2.232
			c-0.536-0.605-1.516-1.045-2.444-1.044C28.563,7.853,28,7.876,28,7.914V7.91l-0.195,0.032c-0.475-0.004-0.698-0.155-0.921-0.376
			c-0.219-0.225-0.322-0.548-0.325-1.008l0.069-0.449l0.005-0.001c0.06-0.241,0.102-0.484,0.102-0.721
			c0-0.917-0.423-1.717-1.019-2.264c-0.598-0.549-1.382-0.89-2.234-0.894c-0.661-0.004-1.36,0.233-1.929,0.721l-0.002-0.003
			c-0.39,0.302-0.759,0.412-1.07,0.412c-0.541-0.018-1.013-0.286-1.304-1.133l-0.003,0.001c-0.197-0.721-0.643-1.306-1.19-1.673
			C17.424,0.176,16.777,0,16.135,0h-0.056h-0.061c-0.642,0-1.29,0.063-1.85,0.441C13.621,0.808,13.174,2,12.978,2h-0.003
			c-0.135,1-0.341,0.816-0.562,0.989c-0.222,0.173-0.464,0.312-0.743,0.314c-0.311-0.001-0.679-0.083-1.07-0.384l-0.002,0.017
			c-0.569-0.488-1.269-0.718-1.93-0.714C7.816,2.225,7.031,2.57,6.433,3.119C5.838,3.666,5.412,4.467,5.412,5.385
			c0,0.237,0.037,0.481,0.096,0.722L5.502,6.108l0.047,0.45C5.546,7.017,5.199,7.34,4.98,7.565C4.758,7.787,4.247,7.938,3.771,7.942
			z M29.722,21.704C29.534,21.888,29.282,22,29.003,22H3.132c-0.279,0-0.531-0.112-0.719-0.296
			c-0.187-0.186-0.294-0.426-0.295-0.687l0.003-0.069C2.644,13.665,8.756,7.998,16.068,8c7.311-0.001,13.423,5.664,13.947,12.947
			l0.002,0.069C30.017,21.278,29.909,21.518,29.722,21.704z M6.605,8.969C7.22,8.346,7.552,7.477,7.549,6.558
			c0-0.278-0.029-0.562-0.087-0.848L7.448,5.65L7.412,5.386C7.411,5.102,7.543,4.823,7.79,4.592
			c0.245-0.229,0.588-0.366,0.878-0.363c0.236,0.004,0.437,0.066,0.654,0.255l0.052,0.043c0.694,0.539,1.496,0.833,2.296,0.832
			c1.442,0.018,2.757-1.002,3.213-2.534l0.014-0.049c0.074-0.271,0.203-0.432,0.394-0.566C15.481,2.079,15.747,2,16.018,2h0.033
			h0.06l0.024,0c0.271-0.001,0.537,0.079,0.727,0.21c0.191,0.135,0.32,0.296,0.394,0.567l0.014,0.049
			c0.456,1.532,1.771,2.551,3.213,2.534c0.799,0.001,1.602-0.293,2.296-0.832l0.052-0.044c0.217-0.189,0.418-0.251,0.654-0.255
			c0.29-0.003,0.633,0.134,0.878,0.363c0.247,0.231,0.379,0.51,0.378,0.795L24.705,5.65l-0.014,0.059
			c-0.058,0.286-0.088,0.57-0.088,0.849c-0.003,0.919,0.329,1.788,0.944,2.411c0.611,0.626,1.49,0.977,2.434,0.973
			c0.228,0,0.461-0.019,0.697-0.058l0.043-0.008l0.208-0.022c0.286,0.001,0.55,0.129,0.776,0.377
			c0.223,0.245,0.36,0.599,0.357,0.899c-0.005,0.263-0.076,0.474-0.279,0.687c-0.009,0.01-0.013,0.023-0.022,0.033l-0.005-0.004
			c-0.271,0.308-0.463,0.637-0.608,0.972c-2.905-4.13-7.7-6.816-13.08-6.817c-5.374,0.001-10.164,2.68-13.07,6.802
			c-0.144-0.329-0.333-0.653-0.6-0.957L2.392,11.85c-0.009-0.01-0.013-0.024-0.022-0.033c-0.202-0.213-0.274-0.424-0.279-0.687
			c-0.003-0.3,0.134-0.654,0.357-0.899c0.226-0.249,0.49-0.377,0.776-0.377l0.209,0.022l0.042,0.008
			C3.71,9.922,3.943,9.942,4.171,9.942C5.116,9.946,5.994,9.594,6.605,8.969z"/>
		<path style="fill:#E67373;" d="M15.775,12.293c-0.391-0.391-1.024-0.391-1.414,0l-6,6c-0.391,0.391-0.391,1.024,0,1.414
			c0.391,0.391,1.024,0.391,1.414,0l6-6C16.165,13.316,16.165,12.683,15.775,12.293z"/>
		<path style="fill:#E67373;" d="M22.36,12.293l-6,6c-0.39,0.391-0.39,1.024,0,1.414c0.391,0.391,1.024,0.391,1.414,0l6-6
			c0.39-0.391,0.39-1.024,0-1.414C23.384,11.902,22.751,11.902,22.36,12.293z"/>
	</g>
</g>
<g id="Layer_1">
</g>
</svg>
