<?xml version="1.0" encoding="iso-8859-1"?>
<!-- Generator: Adobe Illustrator 19.2.1, SVG Export Plug-In . SVG Version: 6.00 Build 0)  -->
<svg version="1.1" xmlns="http://www.w3.org/2000/svg" xmlns:xlink="http://www.w3.org/1999/xlink" x="0px" y="0px"
	 viewBox="0 0 32 26" style="enable-background:new 0 0 32 26;" xml:space="preserve">
<g id="Layer_48">
	<path style="fill:#E67373;" d="M5,26h14c2.762,0,5-2.222,5-4.984V18h1c3.866,0,6.999-3.134,7-7c-0.001-3.866-3.134-7-7-7h-1V1.016
		c0-0.263-0.107-0.529-0.293-0.715C23.521,0.115,23.263,0,23,0H1C0.737,0,0.479,0.115,0.293,0.301C0.107,0.487,0,0.752,0,1.016v20
		C0,23.778,2.238,26,5,26z M24,6h1c2.761,0,4.995,2.239,5,5c-0.005,2.761-2.239,5-5,5h-1V6z M11,8L11,8h2c0.552,0,1,0.464,1,1.016v4
		C14,13.568,13.552,14,13,14H9c-0.552,0-1-0.44-1-0.992v0.008v-4C8,8.464,8.448,8,9,8H11L11,8z M2,2h8v4H9C7.343,6,6,7.359,6,9.016
		v4C6,14.673,7.343,16,9,16h4c1.657,0,3-1.327,3-2.984v-4C16,7.359,14.657,6,13,6h-1V2h10v19.016C22,22.672,20.656,24,19,24H5
		c-1.657,0-3-1.328-3-2.984V2z"/>
</g>
<g id="Layer_1">
</g>
</svg>
