<?xml version="1.0" encoding="iso-8859-1"?>
<!-- Generator: Adobe Illustrator 19.2.1, SVG Export Plug-In . SVG Version: 6.00 Build 0)  -->
<svg version="1.1" xmlns="http://www.w3.org/2000/svg" xmlns:xlink="http://www.w3.org/1999/xlink" x="0px" y="0px"
	 viewBox="0 0 30 30.243" style="enable-background:new 0 0 30 30.243;" xml:space="preserve">
<g id="Layer_40">
	<g>
		<path style="fill:#E67373;" d="M25.518,7.529c-1.697-1.352-3.761-2.279-6.035-2.797c0.274-0.257,0.396-0.654,0.272-1.034
			c-0.171-0.525-0.735-0.813-1.26-0.642L16.24,3.788c0.242-0.791,0.653-1.508,1.225-2.081c0.391-0.39,0.391-1.024,0-1.414
			c-0.391-0.391-1.024-0.391-1.414,0c-0.966,0.965-1.649,2.218-1.92,3.616l-2.626-0.853c-0.525-0.171-1.089,0.117-1.26,0.642
			c-0.124,0.381-0.002,0.778,0.272,1.034C8.242,5.249,6.179,6.177,4.482,7.529C1.718,9.719-0.011,13.064,0,17.243
			c-0.012,4.179,1.718,7.524,4.482,9.714c2.76,2.198,6.482,3.285,10.518,3.286c4.037-0.001,7.759-1.088,10.518-3.286
			c2.763-2.19,4.493-5.535,4.482-9.714C30.011,13.064,28.282,9.719,25.518,7.529z M24.271,25.393
			c-2.311,1.847-5.589,2.851-9.271,2.849c-3.683,0.001-6.961-1.002-9.271-2.849C3.422,23.538,2.011,20.883,2,17.243
			c0.012-3.641,1.422-6.296,3.729-8.151c1.871-1.496,4.382-2.427,7.222-2.731l-1.111,1.53c-0.325,0.447-0.226,1.072,0.221,1.397
			c0.447,0.325,1.072,0.226,1.397-0.221L15,6.944l1.542,2.123c0.325,0.447,0.95,0.546,1.397,0.221
			c0.447-0.325,0.546-0.95,0.221-1.397l-1.111-1.53c2.84,0.304,5.351,1.235,7.222,2.731c2.307,1.855,3.717,4.51,3.729,8.151
			C27.989,20.883,26.578,23.538,24.271,25.393z"/>
		<path style="fill:#E67373;" d="M22.367,10.198c-0.46-0.306-1.081-0.182-1.387,0.278c-0.306,0.46-0.182,1.08,0.278,1.387
			c1.654,1.127,2.721,2.729,2.742,5.38c0,0.552,0.448,1,1,1c0.552,0,1-0.448,1-1C26.02,13.995,24.505,11.597,22.367,10.198z"/>
	</g>
</g>
<g id="Layer_1">
</g>
</svg>
