<?xml version="1.0" encoding="iso-8859-1"?>
<!-- Generator: Adobe Illustrator 19.2.1, SVG Export Plug-In . SVG Version: 6.00 Build 0)  -->
<svg version="1.1" xmlns="http://www.w3.org/2000/svg" xmlns:xlink="http://www.w3.org/1999/xlink" x="0px" y="0px"
	 viewBox="0 0 22 32" style="enable-background:new 0 0 22 32;" xml:space="preserve">
<g id="Layer_41">
	<path style="fill:#E67373;" d="M22,11.016l-0.019-0.196l-2-10.008C19.887,0.344,19.477,0,19,0H3C2.523,0,2.113,0.344,2.019,0.812
		l-2,10.004L0,11.014c0.002,5.73,4,10.443,10,10.951V30H5c-0.552,0-1,0.448-1,1c0,0.552,0.448,1,1,1h12c0.552,0,1-0.448,1-1
		c0-0.552-0.448-1-1-1h-5v-8.035C17,21.456,21.998,16.746,22,11.016z M3.82,2h14.36l1.6,8H2.22L3.82,2z M11,20.016
		c-2.483,0-4.727-1.015-6.36-2.647C3.23,15.958,2.29,14,2.059,12h17.882c-0.231,2-1.171,3.958-2.58,5.368
		C15.727,19,13.483,20.015,11,20.016z"/>
</g>
<g id="Layer_1">
</g>
</svg>
